
<svg class="isometricks-svg" version="1.1" xmlns="http://www.w3.org/2000/svg" width="415.6921938165305px" height="570px" preserveAspectRatio="xMinYMin" viewBox="0 0.5 13.856406460551018 19">
  <polygon points="0,0 13.856406460551018,0 13.856406460551018,20 0,20" stroke="none" fill="lavenderblush" />
  <polygon points="1.7320508075688772,8 2.598076211353316,8.5 1.7320508075688772,9 0.8660254037844386,8.5" stroke="none" fill="lightskyblue" />
  <polygon points="2.598076211353316,7.5 3.4641016151377544,8 2.598076211353316,8.5 1.7320508075688772,8" stroke="none" fill="lightskyblue" />
  <polygon points="3.4641016151377544,7 4.330127018922193,7.5 3.4641016151377544,8 2.598076211353316,7.5" stroke="none" fill="lightskyblue" />
  <polygon points="4.330127018922193,6.5 5.196152422706631,7 4.330127018922193,7.5 3.4641016151377544,7" stroke="none" fill="lightskyblue" />
  <polygon points="5.196152422706631,6 6.0621778264910695,6.5 5.196152422706631,7 4.330127018922193,6.5" stroke="none" fill="lightskyblue" />
  <polygon points="6.06217782649107,5.5 6.928203230275509,6 6.06217782649107,6.5 5.196152422706632,6" stroke="none" fill="lightskyblue" />
  <polygon points="6.928203230275509,5 7.794228634059947,5.5 6.928203230275509,6 6.06217782649107,5.5" stroke="none" fill="lightskyblue" />
  <polygon points="7.794228634059947,4.5 8.660254037844386,5 7.794228634059947,5.5 6.928203230275509,5" stroke="none" fill="lightskyblue" />
  <polygon points="8.660254037844386,4 9.526279441628825,4.5 8.660254037844386,5 7.794228634059947,4.5" stroke="none" fill="lightskyblue" />
  <polygon points="9.526279441628825,3.5 10.392304845413264,4 9.526279441628825,4.5 8.660254037844386,4" stroke="none" fill="lightskyblue" />
  <polygon points="10.392304845413264,3 11.258330249197703,3.5 10.392304845413264,4 9.526279441628825,3.5" stroke="none" fill="lightskyblue" />
  <polygon points="11.258330249197703,2.5 12.124355652982143,3 11.258330249197703,3.5 10.392304845413264,3" stroke="none" fill="lightskyblue" />
  <polygon points="12.12435565298214,3 12.99038105676658,3.5 12.12435565298214,4 11.258330249197702,3.5" stroke="none" fill="lightskyblue" />
  <polygon points="2.598076211353316,8.5 3.4641016151377544,9 2.598076211353316,9.5 1.7320508075688774,9" stroke="none" fill="lightskyblue" />
  <polygon points="3.4641016151377544,8 4.330127018922193,8.5 3.4641016151377544,9 2.598076211353316,8.5" stroke="none" fill="lightskyblue" />
  <polygon points="4.330127018922193,7.5 5.196152422706631,8 4.330127018922193,8.5 3.4641016151377544,8" stroke="none" fill="lightskyblue" />
  <polygon points="5.196152422706631,7 6.0621778264910695,7.5 5.196152422706631,8 4.330127018922193,7.5" stroke="none" fill="lightskyblue" />
  <polygon points="6.06217782649107,6.5 6.928203230275509,7 6.06217782649107,7.5 5.196152422706632,7" stroke="none" fill="lightskyblue" />
  <polygon points="6.928203230275509,6 7.794228634059947,6.5 6.928203230275509,7 6.06217782649107,6.5" stroke="none" fill="lightskyblue" />
  <polygon points="7.794228634059947,5.5 8.660254037844386,6 7.794228634059947,6.5 6.928203230275509,6" stroke="none" fill="lightskyblue" />
  <polygon points="8.660254037844386,5 9.526279441628825,5.5 8.660254037844386,6 7.794228634059947,5.5" stroke="none" fill="lightskyblue" />
  <polygon points="9.526279441628825,4.5 10.392304845413264,5 9.526279441628825,5.5 8.660254037844386,5" stroke="none" fill="lightskyblue" />
  <polygon points="10.392304845413264,4 11.258330249197703,4.5 10.392304845413264,5 9.526279441628825,4.5" stroke="none" fill="lightskyblue" />
  <polygon points="11.258330249197703,3.5 12.124355652982143,4 11.258330249197703,4.5 10.392304845413264,4" stroke="none" fill="lightskyblue" />
  <polygon points="0.8660254037844386,8.5 1.7320508075688772,9 1.7320508075688772,10 0.8660254037844386,9.5" stroke="none" fill="dodgerblue" />
  <polygon points="0.8660254037844386,9.5 1.7320508075688772,10 1.7320508075688772,11 0.8660254037844386,10.5" stroke="none" fill="dodgerblue" />
  <polygon points="1.7320508075688772,10 2.598076211353316,10.5 2.598076211353316,11.5 1.7320508075688772,11" stroke="none" fill="dodgerblue" />
  <polygon points="2.598076211353316,10.5 3.4641016151377544,11 3.4641016151377544,12 2.598076211353316,11.5" stroke="none" fill="dodgerblue" />
  <polygon points="3.4641016151377544,11 4.330127018922193,11.5 4.330127018922193,12.5 3.4641016151377544,12" stroke="none" fill="dodgerblue" />
  <polygon points="4.330127018922193,11.5 5.196152422706631,12 5.196152422706631,13 4.330127018922193,12.5" stroke="none" fill="dodgerblue" />
  <polygon points="1.7320508075688772,9 2.598076211353316,9.5 2.598076211353316,10.5 1.7320508075688772,10" stroke="none" fill="dodgerblue" />
  <polygon points="2.598076211353316,9.5 3.4641016151377544,10 3.4641016151377544,11 2.598076211353316,10.5" stroke="none" fill="dodgerblue" />
  <polygon points="3.4641016151377544,10 4.330127018922193,10.5 4.330127018922193,11.5 3.4641016151377544,11" stroke="none" fill="dodgerblue" />
  <polygon points="4.330127018922193,10.5 5.196152422706631,11 5.196152422706631,12 4.330127018922193,11.5" stroke="none" fill="dodgerblue" />
  <polygon points="5.196152422706632,12 6.06217782649107,12.5 6.06217782649107,13.5 5.196152422706632,13" stroke="none" fill="dodgerblue" />
  <polygon points="5.196152422706632,11 6.06217782649107,11.5 6.06217782649107,12.5 5.196152422706632,12" stroke="none" fill="dodgerblue" />
  <polygon points="6.06217782649107,11.5 6.928203230275509,12 6.928203230275509,13 6.06217782649107,12.5" stroke="none" fill="dodgerblue" />
  <polygon points="6.06217782649107,12.5 6.928203230275509,13 6.928203230275509,14 6.06217782649107,13.5" stroke="none" fill="dodgerblue" />
  <polygon points="6.928203230275509,12 7.794228634059947,12.5 7.794228634059947,13.5 6.928203230275509,13" stroke="none" fill="dodgerblue" />
  <polygon points="6.928203230275509,13 7.794228634059947,13.5 7.794228634059947,14.5 6.928203230275509,14" stroke="none" fill="dodgerblue" />
  <polygon points="7.794228634059947,12.5 8.660254037844386,13 8.660254037844386,14 7.794228634059947,13.5" stroke="none" fill="dodgerblue" />
  <polygon points="7.794228634059947,13.5 8.660254037844386,14 8.660254037844386,15 7.794228634059947,14.5" stroke="none" fill="dodgerblue" />
  <polygon points="8.660254037844386,13 9.526279441628825,13.5 9.526279441628825,14.5 8.660254037844386,14" stroke="none" fill="dodgerblue" />
  <polygon points="8.660254037844386,14 9.526279441628825,14.5 9.526279441628825,15.5 8.660254037844386,15" stroke="none" fill="dodgerblue" />
  <polygon points="9.526279441628825,13.5 10.392304845413264,14 10.392304845413264,15 9.526279441628825,14.5" stroke="none" fill="dodgerblue" />
  <polygon points="9.526279441628825,14.5 10.392304845413264,15 10.392304845413264,16 9.526279441628825,15.5" stroke="none" fill="dodgerblue" />
  <polygon points="10.392304845413264,14 11.258330249197703,14.5 11.258330249197703,15.5 10.392304845413264,15" stroke="none" fill="dodgerblue" />
  <polygon points="10.392304845413264,15 11.258330249197703,15.5 11.258330249197703,16.5 10.392304845413264,16" stroke="none" fill="dodgerblue" />
  <polygon points="10.392304845413264,13 11.258330249197703,13.5 11.258330249197703,14.5 10.392304845413264,14" stroke="none" fill="dodgerblue" />
  <polygon points="12.12435565298214,4 12.12435565298214,5 11.258330249197702,5.5 11.258330249197702,4.5" stroke="none" fill="mediumblue" />
  <polygon points="12.12435565298214,5 12.12435565298214,6 11.258330249197702,6.5 11.258330249197702,5.5" stroke="none" fill="mediumblue" />
  <polygon points="12.12435565298214,6 12.12435565298214,7 11.258330249197702,7.5 11.258330249197702,6.5" stroke="none" fill="mediumblue" />
  <polygon points="12.99038105676658,3.5 12.99038105676658,4.5 12.12435565298214,5 12.12435565298214,4" stroke="none" fill="mediumblue" />
  <polygon points="12.99038105676658,4.5 12.99038105676658,5.5 12.12435565298214,6 12.12435565298214,5" stroke="none" fill="mediumblue" />
  <polygon points="12.99038105676658,5.5 12.99038105676658,6.5 12.12435565298214,7 12.12435565298214,6" stroke="none" fill="mediumblue" />
  <polygon points="12.12435565298214,7 12.12435565298214,8 11.258330249197702,8.5 11.258330249197702,7.5" stroke="none" fill="mediumblue" />
  <polygon points="12.99038105676658,6.5 12.99038105676658,7.5 12.12435565298214,8 12.12435565298214,7" stroke="none" fill="mediumblue" />
  <polygon points="12.12435565298214,8 12.12435565298214,9 11.258330249197702,9.5 11.258330249197702,8.5" stroke="none" fill="mediumblue" />
  <polygon points="12.99038105676658,7.5 12.99038105676658,8.5 12.12435565298214,9 12.12435565298214,8" stroke="none" fill="mediumblue" />
  <polygon points="12.12435565298214,9 12.12435565298214,10 11.258330249197702,10.5 11.258330249197702,9.5" stroke="none" fill="mediumblue" />
  <polygon points="12.99038105676658,8.5 12.99038105676658,9.5 12.12435565298214,10 12.12435565298214,9" stroke="none" fill="mediumblue" />
  <polygon points="12.12435565298214,10 12.12435565298214,11 11.258330249197702,11.5 11.258330249197702,10.5" stroke="none" fill="mediumblue" />
  <polygon points="12.99038105676658,9.5 12.99038105676658,10.5 12.12435565298214,11 12.12435565298214,10" stroke="none" fill="mediumblue" />
  <polygon points="12.12435565298214,11 12.12435565298214,12 11.258330249197702,12.5 11.258330249197702,11.5" stroke="none" fill="mediumblue" />
  <polygon points="12.99038105676658,10.5 12.99038105676658,11.5 12.12435565298214,12 12.12435565298214,11" stroke="none" fill="mediumblue" />
  <polygon points="12.12435565298214,12 12.12435565298214,13 11.258330249197702,13.5 11.258330249197702,12.5" stroke="none" fill="mediumblue" />
  <polygon points="12.99038105676658,11.5 12.99038105676658,12.5 12.12435565298214,13 12.12435565298214,12" stroke="none" fill="mediumblue" />
  <polygon points="12.12435565298214,13 12.12435565298214,14 11.258330249197702,14.5 11.258330249197702,13.5" stroke="none" fill="mediumblue" />
  <polygon points="12.99038105676658,12.5 12.99038105676658,13.5 12.12435565298214,14 12.12435565298214,13" stroke="none" fill="mediumblue" />
  <polygon points="12.12435565298214,14 12.12435565298214,15 11.258330249197702,15.5 11.258330249197702,14.5" stroke="none" fill="mediumblue" />
  <polygon points="12.99038105676658,13.5 12.99038105676658,14.5 12.12435565298214,15 12.12435565298214,14" stroke="none" fill="mediumblue" />
  <polygon points="12.12435565298214,15 12.12435565298214,16 11.258330249197702,16.5 11.258330249197702,15.5" stroke="none" fill="mediumblue" />
  <polygon points="12.99038105676658,14.5 12.99038105676658,15.5 12.12435565298214,16 12.12435565298214,15" stroke="none" fill="mediumblue" />
  <polygon points="6.06217782649107,8.5 6.06217782649107,9.5 5.196152422706632,10 5.196152422706632,9" stroke="none" fill="mediumblue" />
  <polygon points="6.06217782649107,7.5 6.06217782649107,8.5 5.196152422706632,9 5.196152422706632,8" stroke="none" fill="mediumblue" />
  <polygon points="5.196152422706631,8 5.196152422706631,9 4.330127018922193,9.5 4.330127018922193,8.5" stroke="none" fill="mediumblue" />
  <polygon points="6.928203230275509,8 6.928203230275509,9 6.06217782649107,9.5 6.06217782649107,8.5" stroke="none" fill="mediumblue" />
  <polygon points="6.928203230275509,7 6.928203230275509,8 6.06217782649107,8.5 6.06217782649107,7.5" stroke="none" fill="mediumblue" />
  <polygon points="7.794228634059947,6.5 7.794228634059947,7.5 6.928203230275509,8 6.928203230275509,7" stroke="none" fill="mediumblue" />
  <polygon points="7.794228634059947,7.5 7.794228634059947,8.5 6.928203230275509,9 6.928203230275509,8" stroke="none" fill="mediumblue" />
  <polygon points="8.660254037844386,6 8.660254037844386,7 7.794228634059947,7.5 7.794228634059947,6.5" stroke="none" fill="mediumblue" />
  <polygon points="8.660254037844386,7 8.660254037844386,8 7.794228634059947,8.5 7.794228634059947,7.5" stroke="none" fill="mediumblue" />
  <polygon points="9.526279441628825,5.5 9.526279441628825,6.5 8.660254037844386,7 8.660254037844386,6" stroke="none" fill="mediumblue" />
  <polygon points="9.526279441628825,6.5 9.526279441628825,7.5 8.660254037844386,8 8.660254037844386,7" stroke="none" fill="mediumblue" />
  <polygon points="10.392304845413264,5 10.392304845413264,6 9.526279441628825,6.5 9.526279441628825,5.5" stroke="none" fill="mediumblue" />
  <polygon points="11.258330249197703,4.5 11.258330249197703,5.5 10.392304845413264,6 10.392304845413264,5" stroke="none" fill="mediumblue" />
  <polygon points="10.392304845413264,12 11.258330249197703,12.5 11.258330249197703,13.5 10.392304845413264,13" stroke="none" fill="dodgerblue" />
  <polygon points="9.526279441628825,10.5 10.392304845413264,11 10.392304845413264,12 9.526279441628825,11.5" stroke="none" fill="dodgerblue" />
  <polygon points="10.392304845413264,11 11.258330249197703,11.5 11.258330249197703,12.5 10.392304845413264,12" stroke="none" fill="dodgerblue" />
  <polygon points="9.526279441628825,9.5 10.392304845413264,10 10.392304845413264,11 9.526279441628825,10.5" stroke="none" fill="dodgerblue" />
  <polygon points="10.392304845413264,10 11.258330249197703,10.5 11.258330249197703,11.5 10.392304845413264,11" stroke="none" fill="dodgerblue" />
  <polygon points="10.392304845413264,9 11.258330249197703,9.5 11.258330249197703,10.5 10.392304845413264,10" stroke="none" fill="dodgerblue" />
  <polygon points="9.526279441628825,8.5 10.392304845413264,9 10.392304845413264,10 9.526279441628825,9.5" stroke="none" fill="dodgerblue" />
  <polygon points="9.526279441628825,7.5 10.392304845413264,8 10.392304845413264,9 9.526279441628825,8.5" stroke="none" fill="dodgerblue" />
  <polygon points="10.392304845413264,8 11.258330249197703,8.5 11.258330249197703,9.5 10.392304845413264,9" stroke="none" fill="dodgerblue" />
  <polygon points="10.392304845413264,7 11.258330249197703,7.5 11.258330249197703,8.5 10.392304845413264,8" stroke="none" fill="dodgerblue" />
  <polygon points="9.526279441628825,6.5 10.392304845413264,7 10.392304845413264,8 9.526279441628825,7.5" stroke="none" fill="dodgerblue" />
  <polygon points="10.392304845413264,6 11.258330249197703,6.5 11.258330249197703,7.5 10.392304845413264,7" stroke="none" fill="dodgerblue" />
  <polygon points="10.392304845413264,6 10.392304845413264,7 9.526279441628825,7.5 9.526279441628825,6.5" stroke="none" fill="mediumblue" />
  <polygon points="11.258330249197703,5.5 11.258330249197703,6.5 10.392304845413264,7 10.392304845413264,6" stroke="none" fill="mediumblue" />
  <polygon points="4.330127018922193,8.5 5.196152422706631,9 4.330127018922193,9.5 3.4641016151377544,9" stroke="none" fill="lightskyblue" />
  <polygon points="5.196152422706631,9 6.0621778264910695,9.5 5.196152422706631,10 4.330127018922193,9.5" stroke="none" fill="lightskyblue" />
  <polygon points="6.06217782649107,9.5 6.928203230275509,10 6.06217782649107,10.5 5.196152422706632,10" stroke="none" fill="lightskyblue" />
  <polygon points="6.928203230275509,10 7.794228634059947,10.5 6.928203230275509,11 6.06217782649107,10.5" stroke="none" fill="lightskyblue" />
  <polygon points="7.794228634059947,10.5 8.660254037844386,11 7.794228634059947,11.5 6.928203230275509,11" stroke="none" fill="lightskyblue" />
  <polygon points="8.660254037844386,11 9.526279441628825,11.5 8.660254037844386,12 7.794228634059947,11.5" stroke="none" fill="lightskyblue" />
  <polygon points="9.526279441628825,11.5 10.392304845413264,12 9.526279441628825,12.5 8.660254037844386,12" stroke="none" fill="lightskyblue" />
  <polygon points="8.660254037844386,12 9.526279441628825,12.5 8.660254037844386,13 7.794228634059947,12.5" stroke="none" fill="lightskyblue" />
  <polygon points="9.526279441628825,12.5 10.392304845413264,13 9.526279441628825,13.5 8.660254037844386,13" stroke="none" fill="lightskyblue" />
  <polygon points="7.794228634059947,11.5 8.660254037844386,12 7.794228634059947,12.5 6.928203230275509,12" stroke="none" fill="lightskyblue" />
  <polygon points="6.928203230275509,11 7.794228634059947,11.5 6.928203230275509,12 6.06217782649107,11.5" stroke="none" fill="lightskyblue" />
  <polygon points="6.06217782649107,10.5 6.928203230275509,11 6.06217782649107,11.5 5.196152422706632,11" stroke="none" fill="lightskyblue" />
  <polygon points="5.196152422706632,10 6.06217782649107,10.5 5.196152422706632,11 4.330127018922194,10.5" stroke="none" fill="lightskyblue" />
  <polygon points="4.330127018922193,9.5 5.196152422706631,10 4.330127018922193,10.5 3.4641016151377544,10" stroke="none" fill="lightskyblue" />
  <polygon points="3.4641016151377544,9 4.330127018922193,9.5 3.4641016151377544,10 2.598076211353316,9.5" stroke="none" fill="lightskyblue" />
  <polygon points="9.526279441628825,11.5 10.392304845413264,12 10.392304845413264,13 9.526279441628825,12.5" stroke="none" fill="dodgerblue" />
  <polygon points="9.526279441628825,12.5 10.392304845413264,13 10.392304845413264,14 9.526279441628825,13.5" stroke="none" fill="dodgerblue" />
</svg>
  