
<svg class="isometricks-svg" version="1.1" xmlns="http://www.w3.org/2000/svg" width="415.6921938165305px" height="570px" preserveAspectRatio="xMinYMin" viewBox="0 0.5 13.856406460551018 19">
  <polygon points="0,0 13.856406460551018,0 13.856406460551018,20 0,20" stroke="none" fill="rgb(20,20,20)" />
  <polygon points="4.330127018922193,6.5 4.330127018922193,7.5 3.4641016151377544,8 3.4641016151377544,7" stroke="none" fill="#ff00ffff" />
  <polygon points="5.196152422706631,6 5.196152422706631,7 4.330127018922193,7.5 4.330127018922193,6.5" stroke="none" fill="#ff00ffff" />
  <polygon points="6.06217782649107,5.5 6.06217782649107,6.5 5.196152422706632,7 5.196152422706632,6" stroke="none" fill="#ff00ffff" />
  <polygon points="6.928203230275509,5 6.928203230275509,6 6.06217782649107,6.5 6.06217782649107,5.5" stroke="none" fill="#ff00ffff" />
  <polygon points="7.794228634059947,4.5 7.794228634059947,5.5 6.928203230275509,6 6.928203230275509,5" stroke="none" fill="#ff00ffff" />
  <polygon points="8.660254037844386,4 8.660254037844386,5 7.794228634059947,5.5 7.794228634059947,4.5" stroke="none" fill="#ff00ffff" />
  <polygon points="9.526279441628825,3.5 9.526279441628825,4.5 8.660254037844386,5 8.660254037844386,4" stroke="none" fill="#ff00ffff" />
  <polygon points="10.392304845413264,3 10.392304845413264,4 9.526279441628825,4.5 9.526279441628825,3.5" stroke="none" fill="#ff00ffff" />
  <polygon points="4.330127018922193,7.5 4.330127018922193,8.5 3.4641016151377544,9 3.4641016151377544,8" stroke="none" fill="#ff00fff0" />
  <polygon points="5.196152422706631,7 5.196152422706631,8 4.330127018922193,8.5 4.330127018922193,7.5" stroke="none" fill="#ff00fff0" />
  <polygon points="6.06217782649107,6.5 6.06217782649107,7.5 5.196152422706632,8 5.196152422706632,7" stroke="none" fill="#ff00fff0" />
  <polygon points="6.928203230275509,6 6.928203230275509,7 6.06217782649107,7.5 6.06217782649107,6.5" stroke="none" fill="#ff00fff0" />
  <polygon points="7.794228634059947,5.5 7.794228634059947,6.5 6.928203230275509,7 6.928203230275509,6" stroke="none" fill="#ff00fff0" />
  <polygon points="8.660254037844386,5 8.660254037844386,6 7.794228634059947,6.5 7.794228634059947,5.5" stroke="none" fill="#ff00fff0" />
  <polygon points="9.526279441628825,4.5 9.526279441628825,5.5 8.660254037844386,6 8.660254037844386,5" stroke="none" fill="#ff00fff0" />
  <polygon points="10.392304845413264,4 10.392304845413264,5 9.526279441628825,5.5 9.526279441628825,4.5" stroke="none" fill="#ff00fff0" />
  <polygon points="4.330127018922193,8.5 4.330127018922193,9.5 3.4641016151377544,10 3.4641016151377544,9" stroke="none" fill="#ff00ffee" />
  <polygon points="5.196152422706631,8 5.196152422706631,9 4.330127018922193,9.5 4.330127018922193,8.5" stroke="none" fill="#ff00ffee" />
  <polygon points="6.06217782649107,7.5 6.06217782649107,8.5 5.196152422706632,9 5.196152422706632,8" stroke="none" fill="#ff00ffee" />
  <polygon points="6.928203230275509,7 6.928203230275509,8 6.06217782649107,8.5 6.06217782649107,7.5" stroke="none" fill="#ff00ffee" />
  <polygon points="7.794228634059947,6.5 7.794228634059947,7.5 6.928203230275509,8 6.928203230275509,7" stroke="none" fill="#ff00ffee" />
  <polygon points="8.660254037844386,6 8.660254037844386,7 7.794228634059947,7.5 7.794228634059947,6.5" stroke="none" fill="#ff00ffee" />
  <polygon points="9.526279441628825,5.5 9.526279441628825,6.5 8.660254037844386,7 8.660254037844386,6" stroke="none" fill="#ff00ffee" />
  <polygon points="10.392304845413264,5 10.392304845413264,6 9.526279441628825,6.5 9.526279441628825,5.5" stroke="none" fill="#ff00ffee" />
  <polygon points="4.330127018922193,9.5 4.330127018922193,10.5 3.4641016151377544,11 3.4641016151377544,10" stroke="none" fill="#ff00ffe0" />
  <polygon points="5.196152422706631,9 5.196152422706631,10 4.330127018922193,10.5 4.330127018922193,9.5" stroke="none" fill="#ff00ffe0" />
  <polygon points="6.06217782649107,8.5 6.06217782649107,9.5 5.196152422706632,10 5.196152422706632,9" stroke="none" fill="#ff00ffe0" />
  <polygon points="6.928203230275509,8 6.928203230275509,9 6.06217782649107,9.5 6.06217782649107,8.5" stroke="none" fill="#ff00ffe0" />
  <polygon points="7.794228634059947,7.5 7.794228634059947,8.5 6.928203230275509,9 6.928203230275509,8" stroke="none" fill="#ff00ffe0" />
  <polygon points="8.660254037844386,7 8.660254037844386,8 7.794228634059947,8.5 7.794228634059947,7.5" stroke="none" fill="#ff00ffe0" />
  <polygon points="9.526279441628825,6.5 9.526279441628825,7.5 8.660254037844386,8 8.660254037844386,7" stroke="none" fill="#ff00ffe0" />
  <polygon points="10.392304845413264,6 10.392304845413264,7 9.526279441628825,7.5 9.526279441628825,6.5" stroke="none" fill="#ff00ffe0" />
  <polygon points="4.330127018922193,10.5 4.330127018922193,11.5 3.4641016151377544,12 3.4641016151377544,11" stroke="none" fill="#ff00ffdd" />
  <polygon points="5.196152422706631,10 5.196152422706631,11 4.330127018922193,11.5 4.330127018922193,10.5" stroke="none" fill="#ff00ffdd" />
  <polygon points="6.06217782649107,9.5 6.06217782649107,10.5 5.196152422706632,11 5.196152422706632,10" stroke="none" fill="#ff00ffdd" />
  <polygon points="6.928203230275509,9 6.928203230275509,10 6.06217782649107,10.5 6.06217782649107,9.5" stroke="none" fill="#ff00ffdd" />
  <polygon points="7.794228634059947,8.5 7.794228634059947,9.5 6.928203230275509,10 6.928203230275509,9" stroke="none" fill="#ff00ffdd" />
  <polygon points="8.660254037844386,8 8.660254037844386,9 7.794228634059947,9.5 7.794228634059947,8.5" stroke="none" fill="#ff00ffdd" />
  <polygon points="9.526279441628825,7.5 9.526279441628825,8.5 8.660254037844386,9 8.660254037844386,8" stroke="none" fill="#ff00ffdd" />
  <polygon points="10.392304845413264,7 10.392304845413264,8 9.526279441628825,8.5 9.526279441628825,7.5" stroke="none" fill="#ff00ffdd" />
  <polygon points="4.330127018922193,11.5 4.330127018922193,12.5 3.4641016151377544,13 3.4641016151377544,12" stroke="none" fill="#ff00ffd0" />
  <polygon points="5.196152422706631,11 5.196152422706631,12 4.330127018922193,12.5 4.330127018922193,11.5" stroke="none" fill="#ff00ffd0" />
  <polygon points="6.06217782649107,10.5 6.06217782649107,11.5 5.196152422706632,12 5.196152422706632,11" stroke="none" fill="#ff00ffd0" />
  <polygon points="6.928203230275509,10 6.928203230275509,11 6.06217782649107,11.5 6.06217782649107,10.5" stroke="none" fill="#ff00ffd0" />
  <polygon points="7.794228634059947,9.5 7.794228634059947,10.5 6.928203230275509,11 6.928203230275509,10" stroke="none" fill="#ff00ffd0" />
  <polygon points="8.660254037844386,9 8.660254037844386,10 7.794228634059947,10.5 7.794228634059947,9.5" stroke="none" fill="#ff00ffd0" />
  <polygon points="9.526279441628825,8.5 9.526279441628825,9.5 8.660254037844386,10 8.660254037844386,9" stroke="none" fill="#ff00ffd0" />
  <polygon points="10.392304845413264,8 10.392304845413264,9 9.526279441628825,9.5 9.526279441628825,8.5" stroke="none" fill="#ff00ffd0" />
  <polygon points="4.330127018922193,12.5 4.330127018922193,13.5 3.4641016151377544,14 3.4641016151377544,13" stroke="none" fill="#ff00ffcf" />
  <polygon points="5.196152422706631,12 5.196152422706631,13 4.330127018922193,13.5 4.330127018922193,12.5" stroke="none" fill="#ff00ffcf" />
  <polygon points="6.06217782649107,11.5 6.06217782649107,12.5 5.196152422706632,13 5.196152422706632,12" stroke="none" fill="#ff00ffcf" />
  <polygon points="6.928203230275509,11 6.928203230275509,12 6.06217782649107,12.5 6.06217782649107,11.5" stroke="none" fill="#ff00ffcf" />
  <polygon points="7.794228634059947,10.5 7.794228634059947,11.5 6.928203230275509,12 6.928203230275509,11" stroke="none" fill="#ff00ffcf" />
  <polygon points="8.660254037844386,10 8.660254037844386,11 7.794228634059947,11.5 7.794228634059947,10.5" stroke="none" fill="#ff00ffcf" />
  <polygon points="9.526279441628825,9.5 9.526279441628825,10.5 8.660254037844386,11 8.660254037844386,10" stroke="none" fill="#ff00ffcf" />
  <polygon points="10.392304845413264,9 10.392304845413264,10 9.526279441628825,10.5 9.526279441628825,9.5" stroke="none" fill="#ff00ffcf" />
  <polygon points="4.330127018922193,13.5 4.330127018922193,14.5 3.4641016151377544,15 3.4641016151377544,14" stroke="none" fill="#ff00ffc0" />
  <polygon points="5.196152422706631,13 5.196152422706631,14 4.330127018922193,14.5 4.330127018922193,13.5" stroke="none" fill="#ff00ffc0" />
  <polygon points="6.06217782649107,12.5 6.06217782649107,13.5 5.196152422706632,14 5.196152422706632,13" stroke="none" fill="#ff00ffc0" />
  <polygon points="6.928203230275509,12 6.928203230275509,13 6.06217782649107,13.5 6.06217782649107,12.5" stroke="none" fill="#ff00ffc0" />
  <polygon points="7.794228634059947,11.5 7.794228634059947,12.5 6.928203230275509,13 6.928203230275509,12" stroke="none" fill="#ff00ffc0" />
  <polygon points="8.660254037844386,11 8.660254037844386,12 7.794228634059947,12.5 7.794228634059947,11.5" stroke="none" fill="#ff00ffc0" />
  <polygon points="9.526279441628825,10.5 9.526279441628825,11.5 8.660254037844386,12 8.660254037844386,11" stroke="none" fill="#ff00ffc0" />
  <polygon points="10.392304845413264,10 10.392304845413264,11 9.526279441628825,11.5 9.526279441628825,10.5" stroke="none" fill="#ff00ffc0" />
  <polygon points="9.526279441628825,2.5 10.392304845413264,3 9.526279441628825,3.5 8.660254037844386,3" stroke="none" fill="rgb(70,70,70)" />
  <polygon points="8.660254037844386,3 9.526279441628825,3.5 8.660254037844386,4 7.794228634059947,3.5" stroke="none" fill="rgb(70,70,70)" />
  <polygon points="7.794228634059947,3.5 8.660254037844386,4 7.794228634059947,4.5 6.928203230275509,4" stroke="none" fill="rgb(70,70,70)" />
  <polygon points="6.928203230275509,4 7.794228634059947,4.5 6.928203230275509,5 6.06217782649107,4.5" stroke="none" fill="rgb(70,70,70)" />
  <polygon points="6.06217782649107,4.5 6.928203230275509,5 6.06217782649107,5.5 5.196152422706632,5" stroke="none" fill="rgb(70,70,70)" />
  <polygon points="5.196152422706632,5 6.06217782649107,5.5 5.196152422706632,6 4.330127018922194,5.5" stroke="none" fill="rgb(70,70,70)" />
  <polygon points="4.330127018922193,5.5 5.196152422706631,6 4.330127018922193,6.5 3.4641016151377544,6" stroke="none" fill="rgb(70,70,70)" />
  <polygon points="3.4641016151377544,6 4.330127018922193,6.5 3.4641016151377544,7 2.598076211353316,6.5" stroke="none" fill="rgb(70,70,70)" />
  <polygon points="2.598076211353316,6.5 3.4641016151377544,7 3.4641016151377544,8 2.598076211353316,7.5" stroke="none" fill="rgb(50,50,50)" />
  <polygon points="2.598076211353316,7.5 3.4641016151377544,8 3.4641016151377544,9 2.598076211353316,8.5" stroke="none" fill="rgb(50,50,50)" />
  <polygon points="2.598076211353316,8.5 3.4641016151377544,9 3.4641016151377544,10 2.598076211353316,9.5" stroke="none" fill="rgb(50,50,50)" />
  <polygon points="2.598076211353316,9.5 3.4641016151377544,10 3.4641016151377544,11 2.598076211353316,10.5" stroke="none" fill="rgb(50,50,50)" />
  <polygon points="2.598076211353316,10.5 3.4641016151377544,11 3.4641016151377544,12 2.598076211353316,11.5" stroke="none" fill="rgb(50,50,50)" />
  <polygon points="2.598076211353316,11.5 3.4641016151377544,12 3.4641016151377544,13 2.598076211353316,12.5" stroke="none" fill="rgb(50,50,50)" />
  <polygon points="2.598076211353316,12.5 3.4641016151377544,13 3.4641016151377544,14 2.598076211353316,13.5" stroke="none" fill="rgb(50,50,50)" />
  <polygon points="2.598076211353316,13.5 3.4641016151377544,14 3.4641016151377544,15 2.598076211353316,14.5" stroke="none" fill="rgb(50,50,50)" />
</svg>
  