
<svg class="isometricks-svg" version="1.1" xmlns="http://www.w3.org/2000/svg" width="415.6921938165305px" height="570px" preserveAspectRatio="xMinYMin" viewBox="0 0.5 13.856406460551018 19">
  <polygon points="0,0 13.856406460551018,0 13.856406460551018,20 0,20" stroke="none" fill="rgba(0,0,0,0)" />
  <polygon points="0.8660254037844386,11.5 1.7320508075688772,12 0.8660254037844386,12.5 0,12" stroke="none" fill="lightcoral" />
  <polygon points="1.7320508075688772,11 2.598076211353316,11.5 1.7320508075688772,12 0.8660254037844386,11.5" stroke="none" fill="lightcoral" />
  <polygon points="3.4641016151377544,10 4.330127018922193,10.5 3.4641016151377544,11 2.598076211353316,10.5" stroke="none" fill="lightcoral" />
  <polygon points="2.598076211353316,10.5 3.4641016151377544,11 2.598076211353316,11.5 1.7320508075688772,11" stroke="none" fill="lightcoral" />
  <polygon points="4.330127018922193,9.5 5.196152422706631,10 4.330127018922193,10.5 3.4641016151377544,10" stroke="none" fill="lightcoral" />
  <polygon points="5.196152422706632,10 6.06217782649107,10.5 5.196152422706632,11 4.330127018922194,10.5" stroke="none" fill="lightcoral" />
  <polygon points="6.06217782649107,10.5 6.928203230275509,11 6.06217782649107,11.5 5.196152422706632,11" stroke="none" fill="lightcoral" />
  <polygon points="5.196152422706632,11 6.06217782649107,11.5 5.196152422706632,12 4.330127018922194,11.5" stroke="none" fill="lightcoral" />
  <polygon points="4.330127018922193,11.5 5.196152422706631,12 4.330127018922193,12.5 3.4641016151377544,12" stroke="none" fill="lightcoral" />
  <polygon points="3.4641016151377544,12 4.330127018922193,12.5 3.4641016151377544,13 2.598076211353316,12.5" stroke="none" fill="lightcoral" />
  <polygon points="2.598076211353316,12.5 3.4641016151377544,13 2.598076211353316,13.5 1.7320508075688774,13" stroke="none" fill="lightcoral" />
  <polygon points="1.7320508075688772,12 2.598076211353316,12.5 1.7320508075688772,13 0.8660254037844386,12.5" stroke="none" fill="lightcoral" />
  <polygon points="2.598076211353316,11.5 3.4641016151377544,12 2.598076211353316,12.5 1.7320508075688774,12" stroke="none" fill="lightcoral" />
  <polygon points="3.4641016151377544,11 4.330127018922193,11.5 3.4641016151377544,12 2.598076211353316,11.5" stroke="none" fill="lightcoral" />
  <polygon points="4.330127018922193,10.5 5.196152422706631,11 4.330127018922193,11.5 3.4641016151377544,11" stroke="none" fill="lightcoral" />
  <polygon points="7.794228634059947,10.5 8.660254037844386,11 7.794228634059947,11.5 6.928203230275509,11" stroke="none" fill="lightcoral" />
  <polygon points="8.660254037844386,10 9.526279441628825,10.5 8.660254037844386,11 7.794228634059947,10.5" stroke="none" fill="lightcoral" />
  <polygon points="9.526279441628825,9.5 10.392304845413264,10 9.526279441628825,10.5 8.660254037844386,10" stroke="none" fill="lightcoral" />
  <polygon points="8.660254037844386,11 9.526279441628825,11.5 8.660254037844386,12 7.794228634059947,11.5" stroke="none" fill="lightcoral" />
  <polygon points="9.526279441628825,11.5 10.392304845413264,12 9.526279441628825,12.5 8.660254037844386,12" stroke="none" fill="lightcoral" />
  <polygon points="10.392304845413264,11 11.258330249197703,11.5 10.392304845413264,12 9.526279441628825,11.5" stroke="none" fill="lightcoral" />
  <polygon points="9.526279441628825,10.5 10.392304845413264,11 9.526279441628825,11.5 8.660254037844386,11" stroke="none" fill="lightcoral" />
  <polygon points="10.392304845413264,10 11.258330249197703,10.5 10.392304845413264,11 9.526279441628825,10.5" stroke="none" fill="lightcoral" />
  <polygon points="11.258330249197703,10.5 12.124355652982143,11 11.258330249197703,11.5 10.392304845413264,11" stroke="none" fill="lightcoral" />
  <polygon points="12.12435565298214,11 12.99038105676658,11.5 12.12435565298214,12 11.258330249197702,11.5" stroke="none" fill="lightcoral" />
  <polygon points="12.99038105676658,11.5 13.85640646055102,12 12.99038105676658,12.5 12.12435565298214,12" stroke="none" fill="lightcoral" />
  <polygon points="12.12435565298214,12 12.99038105676658,12.5 12.12435565298214,13 11.258330249197702,12.5" stroke="none" fill="lightcoral" />
  <polygon points="11.258330249197702,11.5 12.12435565298214,12 11.258330249197702,12.5 10.392304845413262,12" stroke="none" fill="lightcoral" />
  <polygon points="10.392304845413264,12 11.258330249197703,12.5 10.392304845413264,13 9.526279441628825,12.5" stroke="none" fill="lightcoral" />
  <polygon points="11.258330249197703,12.5 12.124355652982143,13 11.258330249197703,13.5 10.392304845413264,13" stroke="none" fill="lightcoral" />
  <polygon points="0,12 0.8660254037844386,12.5 0.8660254037844386,13.5 0,13" stroke="none" fill="indianred" />
  <polygon points="0,13 0.8660254037844386,13.5 0.8660254037844386,14.5 0,14" stroke="none" fill="indianred" />
  <polygon points="0,14 0.8660254037844386,14.5 0.8660254037844386,15.5 0,15" stroke="none" fill="indianred" />
  <polygon points="0.8660254037844386,12.5 1.7320508075688772,13 1.7320508075688772,14 0.8660254037844386,13.5" stroke="none" fill="indianred" />
  <polygon points="0.8660254037844386,13.5 1.7320508075688772,14 1.7320508075688772,15 0.8660254037844386,14.5" stroke="none" fill="indianred" />
  <polygon points="1.7320508075688772,15 2.598076211353316,15.5 2.598076211353316,16.5 1.7320508075688772,16" stroke="none" fill="indianred" />
  <polygon points="0.8660254037844386,14.5 1.7320508075688772,15 1.7320508075688772,16 0.8660254037844386,15.5" stroke="none" fill="indianred" />
  <polygon points="1.7320508075688772,14 2.598076211353316,14.5 2.598076211353316,15.5 1.7320508075688772,15" stroke="none" fill="indianred" />
  <polygon points="1.7320508075688772,13 2.598076211353316,13.5 2.598076211353316,14.5 1.7320508075688772,14" stroke="none" fill="indianred" />
  <polygon points="6.928203230275509,11 7.794228634059947,11.5 7.794228634059947,12.5 6.928203230275509,12" stroke="none" fill="indianred" />
  <polygon points="7.794228634059947,11.5 8.660254037844386,12 8.660254037844386,13 7.794228634059947,12.5" stroke="none" fill="indianred" />
  <polygon points="8.660254037844386,12 9.526279441628825,12.5 9.526279441628825,13.5 8.660254037844386,13" stroke="none" fill="indianred" />
  <polygon points="9.526279441628825,12.5 10.392304845413264,13 10.392304845413264,14 9.526279441628825,13.5" stroke="none" fill="indianred" />
  <polygon points="10.392304845413264,13 11.258330249197703,13.5 11.258330249197703,14.5 10.392304845413264,14" stroke="none" fill="indianred" />
  <polygon points="6.928203230275509,12 7.794228634059947,12.5 7.794228634059947,13.5 6.928203230275509,13" stroke="none" fill="indianred" />
  <polygon points="7.794228634059947,12.5 8.660254037844386,13 8.660254037844386,14 7.794228634059947,13.5" stroke="none" fill="indianred" />
  <polygon points="8.660254037844386,13 9.526279441628825,13.5 9.526279441628825,14.5 8.660254037844386,14" stroke="none" fill="indianred" />
  <polygon points="9.526279441628825,13.5 10.392304845413264,14 10.392304845413264,15 9.526279441628825,14.5" stroke="none" fill="indianred" />
  <polygon points="10.392304845413264,14 11.258330249197703,14.5 11.258330249197703,15.5 10.392304845413264,15" stroke="none" fill="indianred" />
  <polygon points="6.928203230275509,13 7.794228634059947,13.5 7.794228634059947,14.5 6.928203230275509,14" stroke="none" fill="indianred" />
  <polygon points="7.794228634059947,13.5 8.660254037844386,14 8.660254037844386,15 7.794228634059947,14.5" stroke="none" fill="indianred" />
  <polygon points="8.660254037844386,14 9.526279441628825,14.5 9.526279441628825,15.5 8.660254037844386,15" stroke="none" fill="indianred" />
  <polygon points="9.526279441628825,14.5 10.392304845413264,15 10.392304845413264,16 9.526279441628825,15.5" stroke="none" fill="indianred" />
  <polygon points="10.392304845413264,15 11.258330249197703,15.5 11.258330249197703,16.5 10.392304845413264,16" stroke="none" fill="indianred" />
  <polygon points="4.330127018922193,8.5 5.196152422706631,9 5.196152422706631,10 4.330127018922193,9.5" stroke="none" fill="indianred" />
  <polygon points="4.330127018922193,7.5 5.196152422706631,8 5.196152422706631,9 4.330127018922193,8.5" stroke="none" fill="indianred" />
  <polygon points="4.330127018922193,6.5 5.196152422706631,7 5.196152422706631,8 4.330127018922193,7.5" stroke="none" fill="indianred" />
  <polygon points="4.330127018922193,5.5 5.196152422706631,6 5.196152422706631,7 4.330127018922193,6.5" stroke="none" fill="indianred" />
  <polygon points="4.330127018922193,4.5 5.196152422706631,5 5.196152422706631,6 4.330127018922193,5.5" stroke="none" fill="indianred" />
  <polygon points="5.196152422706632,5 6.06217782649107,5.5 6.06217782649107,6.5 5.196152422706632,6" stroke="none" fill="indianred" />
  <polygon points="6.06217782649107,5.5 6.928203230275509,6 6.928203230275509,7 6.06217782649107,6.5" stroke="none" fill="indianred" />
  <polygon points="6.06217782649107,6.5 6.928203230275509,7 6.928203230275509,8 6.06217782649107,7.5" stroke="none" fill="indianred" />
  <polygon points="6.06217782649107,7.5 6.928203230275509,8 6.928203230275509,9 6.06217782649107,8.5" stroke="none" fill="indianred" />
  <polygon points="6.06217782649107,8.5 6.928203230275509,9 6.928203230275509,10 6.06217782649107,9.5" stroke="none" fill="indianred" />
  <polygon points="6.06217782649107,9.5 6.928203230275509,10 6.928203230275509,11 6.06217782649107,10.5" stroke="none" fill="indianred" />
  <polygon points="5.196152422706632,9 6.06217782649107,9.5 6.06217782649107,10.5 5.196152422706632,10" stroke="none" fill="indianred" />
  <polygon points="5.196152422706632,8 6.06217782649107,8.5 6.06217782649107,9.5 5.196152422706632,9" stroke="none" fill="indianred" />
  <polygon points="5.196152422706632,7 6.06217782649107,7.5 6.06217782649107,8.5 5.196152422706632,8" stroke="none" fill="indianred" />
  <polygon points="5.196152422706632,6 6.06217782649107,6.5 6.06217782649107,7.5 5.196152422706632,7" stroke="none" fill="indianred" />
  <polygon points="7.794228634059947,5.5 7.794228634059947,6.5 6.928203230275509,7 6.928203230275509,6" stroke="none" fill="darkred" />
  <polygon points="8.660254037844386,5 8.660254037844386,6 7.794228634059947,6.5 7.794228634059947,5.5" stroke="none" fill="darkred" />
  <polygon points="9.526279441628825,4.5 9.526279441628825,5.5 8.660254037844386,6 8.660254037844386,5" stroke="none" fill="darkred" />
  <polygon points="9.526279441628825,5.5 9.526279441628825,6.5 8.660254037844386,7 8.660254037844386,6" stroke="none" fill="darkred" />
  <polygon points="9.526279441628825,6.5 9.526279441628825,7.5 8.660254037844386,8 8.660254037844386,7" stroke="none" fill="darkred" />
  <polygon points="9.526279441628825,7.5 9.526279441628825,8.5 8.660254037844386,9 8.660254037844386,8" stroke="none" fill="darkred" />
  <polygon points="9.526279441628825,8.5 9.526279441628825,9.5 8.660254037844386,10 8.660254037844386,9" stroke="none" fill="darkred" />
  <polygon points="8.660254037844386,9 8.660254037844386,10 7.794228634059947,10.5 7.794228634059947,9.5" stroke="none" fill="darkred" />
  <polygon points="7.794228634059947,9.5 7.794228634059947,10.5 6.928203230275509,11 6.928203230275509,10" stroke="none" fill="darkred" />
  <polygon points="7.794228634059947,8.5 7.794228634059947,9.5 6.928203230275509,10 6.928203230275509,9" stroke="none" fill="darkred" />
  <polygon points="7.794228634059947,7.5 7.794228634059947,8.5 6.928203230275509,9 6.928203230275509,8" stroke="none" fill="darkred" />
  <polygon points="7.794228634059947,6.5 7.794228634059947,7.5 6.928203230275509,8 6.928203230275509,7" stroke="none" fill="darkred" />
  <polygon points="8.660254037844386,6 8.660254037844386,7 7.794228634059947,7.5 7.794228634059947,6.5" stroke="none" fill="darkred" />
  <polygon points="8.660254037844386,7 8.660254037844386,8 7.794228634059947,8.5 7.794228634059947,7.5" stroke="none" fill="darkred" />
  <polygon points="8.660254037844386,8 8.660254037844386,9 7.794228634059947,9.5 7.794228634059947,8.5" stroke="none" fill="darkred" />
  <polygon points="12.12435565298214,13 12.12435565298214,14 11.258330249197702,14.5 11.258330249197702,13.5" stroke="none" fill="darkred" />
  <polygon points="12.99038105676658,12.5 12.99038105676658,13.5 12.12435565298214,14 12.12435565298214,13" stroke="none" fill="darkred" />
  <polygon points="13.856406460551018,12 13.856406460551018,13 12.990381056766578,13.5 12.990381056766578,12.5" stroke="none" fill="darkred" />
  <polygon points="13.856406460551018,13 13.856406460551018,14 12.990381056766578,14.5 12.990381056766578,13.5" stroke="none" fill="darkred" />
  <polygon points="13.856406460551018,14 13.856406460551018,15 12.990381056766578,15.5 12.990381056766578,14.5" stroke="none" fill="darkred" />
  <polygon points="12.99038105676658,14.5 12.99038105676658,15.5 12.12435565298214,16 12.12435565298214,15" stroke="none" fill="darkred" />
  <polygon points="12.12435565298214,15 12.12435565298214,16 11.258330249197702,16.5 11.258330249197702,15.5" stroke="none" fill="darkred" />
  <polygon points="12.12435565298214,14 12.12435565298214,15 11.258330249197702,15.5 11.258330249197702,14.5" stroke="none" fill="darkred" />
  <polygon points="12.99038105676658,13.5 12.99038105676658,14.5 12.12435565298214,15 12.12435565298214,14" stroke="none" fill="darkred" />
  <polygon points="3.4641016151377544,13 3.4641016151377544,14 2.598076211353316,14.5 2.598076211353316,13.5" stroke="none" fill="darkred" />
  <polygon points="4.330127018922193,12.5 4.330127018922193,13.5 3.4641016151377544,14 3.4641016151377544,13" stroke="none" fill="darkred" />
  <polygon points="5.196152422706631,12 5.196152422706631,13 4.330127018922193,13.5 4.330127018922193,12.5" stroke="none" fill="darkred" />
  <polygon points="6.06217782649107,11.5 6.06217782649107,12.5 5.196152422706632,13 5.196152422706632,12" stroke="none" fill="darkred" />
  <polygon points="6.928203230275509,11 6.928203230275509,12 6.06217782649107,12.5 6.06217782649107,11.5" stroke="none" fill="darkred" />
  <polygon points="6.928203230275509,12 6.928203230275509,13 6.06217782649107,13.5 6.06217782649107,12.5" stroke="none" fill="darkred" />
  <polygon points="6.06217782649107,12.5 6.06217782649107,13.5 5.196152422706632,14 5.196152422706632,13" stroke="none" fill="darkred" />
  <polygon points="5.196152422706631,13 5.196152422706631,14 4.330127018922193,14.5 4.330127018922193,13.5" stroke="none" fill="darkred" />
  <polygon points="4.330127018922193,13.5 4.330127018922193,14.5 3.4641016151377544,15 3.4641016151377544,14" stroke="none" fill="darkred" />
  <polygon points="3.4641016151377544,14 3.4641016151377544,15 2.598076211353316,15.5 2.598076211353316,14.5" stroke="none" fill="darkred" />
  <polygon points="3.4641016151377544,15 3.4641016151377544,16 2.598076211353316,16.5 2.598076211353316,15.5" stroke="none" fill="darkred" />
  <polygon points="4.330127018922193,14.5 4.330127018922193,15.5 3.4641016151377544,16 3.4641016151377544,15" stroke="none" fill="darkred" />
  <polygon points="5.196152422706631,14 5.196152422706631,15 4.330127018922193,15.5 4.330127018922193,14.5" stroke="none" fill="darkred" />
  <polygon points="6.06217782649107,13.5 6.06217782649107,14.5 5.196152422706632,15 5.196152422706632,14" stroke="none" fill="darkred" />
  <polygon points="6.928203230275509,13 6.928203230275509,14 6.06217782649107,14.5 6.06217782649107,13.5" stroke="none" fill="darkred" />
  <polygon points="5.196152422706631,4 6.0621778264910695,4.5 5.196152422706631,5 4.330127018922193,4.5" stroke="none" fill="lightcoral" />
  <polygon points="6.06217782649107,3.5 6.928203230275509,4 6.06217782649107,4.5 5.196152422706632,4" stroke="none" fill="lightcoral" />
  <polygon points="6.928203230275509,3 7.794228634059947,3.5 6.928203230275509,4 6.06217782649107,3.5" stroke="none" fill="lightcoral" />
  <polygon points="7.794228634059947,3.5 8.660254037844386,4 7.794228634059947,4.5 6.928203230275509,4" stroke="none" fill="lightcoral" />
  <polygon points="8.660254037844386,4 9.526279441628825,4.5 8.660254037844386,5 7.794228634059947,4.5" stroke="none" fill="lightcoral" />
  <polygon points="7.794228634059947,4.5 8.660254037844386,5 7.794228634059947,5.5 6.928203230275509,5" stroke="none" fill="lightcoral" />
  <polygon points="6.928203230275509,5 7.794228634059947,5.5 6.928203230275509,6 6.06217782649107,5.5" stroke="none" fill="lightcoral" />
  <polygon points="6.06217782649107,4.5 6.928203230275509,5 6.06217782649107,5.5 5.196152422706632,5" stroke="none" fill="lightcoral" />
  <polygon points="6.928203230275509,4 7.794228634059947,4.5 6.928203230275509,5 6.06217782649107,4.5" stroke="none" fill="lightcoral" />
  <polygon points="6.06217782649107,10.5 6.928203230275509,11 6.928203230275509,12 6.06217782649107,11.5" stroke="none" fill="indianred" />
  <polygon points="5.196152422706632,10 6.06217782649107,10.5 6.06217782649107,11.5 5.196152422706632,11" stroke="none" fill="indianred" />
  <polygon points="6.06217782649107,11.5 6.928203230275509,12 6.928203230275509,13 6.06217782649107,12.5" stroke="none" fill="indianred" />
  <polygon points="6.06217782649107,9.5 6.928203230275509,10 6.06217782649107,10.5 5.196152422706632,10" stroke="none" fill="lightcoral" />
  <polygon points="6.928203230275509,10 7.794228634059947,10.5 6.928203230275509,11 6.06217782649107,10.5" stroke="none" fill="lightcoral" />
  <polygon points="7.794228634059947,9.5 8.660254037844386,10 7.794228634059947,10.5 6.928203230275509,10" stroke="none" fill="lightcoral" />
  <polygon points="7.794228634059947,11.5 7.794228634059947,12.5 6.928203230275509,13 6.928203230275509,12" stroke="none" fill="darkred" />
  <polygon points="7.794228634059947,10.5 7.794228634059947,11.5 6.928203230275509,12 6.928203230275509,11" stroke="none" fill="darkred" />
  <polygon points="8.660254037844386,10 8.660254037844386,11 7.794228634059947,11.5 7.794228634059947,10.5" stroke="none" fill="darkred" />
  <polygon points="6.06217782649107,8.5 6.06217782649107,9.5 5.196152422706632,10 5.196152422706632,9" stroke="none" fill="darkred" />
  <polygon points="5.196152422706631,9 5.196152422706631,10 4.330127018922193,10.5 4.330127018922193,9.5" stroke="none" fill="darkred" />
  <polygon points="5.196152422706631,10 5.196152422706631,11 4.330127018922193,11.5 4.330127018922193,10.5" stroke="none" fill="darkred" />
  <polygon points="7.794228634059947,8.5 8.660254037844386,9 8.660254037844386,10 7.794228634059947,9.5" stroke="none" fill="indianred" />
  <polygon points="8.660254037844386,9 9.526279441628825,9.5 9.526279441628825,10.5 8.660254037844386,10" stroke="none" fill="indianred" />
  <polygon points="8.660254037844386,10 9.526279441628825,10.5 9.526279441628825,11.5 8.660254037844386,11" stroke="none" fill="indianred" />
  <polygon points="6.06217782649107,12.5 6.928203230275509,13 6.06217782649107,13.5 5.196152422706632,13" stroke="none" fill="lightcoral" />
  <polygon points="6.928203230275509,13 7.794228634059947,13.5 6.928203230275509,14 6.06217782649107,13.5" stroke="none" fill="lightcoral" />
  <polygon points="7.794228634059947,12.5 8.660254037844386,13 7.794228634059947,13.5 6.928203230275509,13" stroke="none" fill="lightcoral" />
  <polygon points="5.196152422706632,8 6.06217782649107,8.5 5.196152422706632,9 4.330127018922194,8.5" stroke="none" fill="lightcoral" />
  <polygon points="4.330127018922193,7.5 5.196152422706631,8 4.330127018922193,8.5 3.4641016151377544,8" stroke="none" fill="lightcoral" />
  <polygon points="3.4641016151377544,8 4.330127018922193,8.5 3.4641016151377544,9 2.598076211353316,8.5" stroke="none" fill="lightcoral" />
  <polygon points="4.330127018922193,8.5 5.196152422706631,9 4.330127018922193,9.5 3.4641016151377544,9" stroke="none" fill="lightcoral" />
  <polygon points="8.660254037844386,8 9.526279441628825,8.5 8.660254037844386,9 7.794228634059947,8.5" stroke="none" fill="lightcoral" />
  <polygon points="9.526279441628825,7.5 10.392304845413264,8 9.526279441628825,8.5 8.660254037844386,8" stroke="none" fill="lightcoral" />
  <polygon points="10.392304845413264,8 11.258330249197703,8.5 10.392304845413264,9 9.526279441628825,8.5" stroke="none" fill="lightcoral" />
  <polygon points="9.526279441628825,8.5 10.392304845413264,9 9.526279441628825,9.5 8.660254037844386,9" stroke="none" fill="lightcoral" />
  <polygon points="10.392304845413264,9 10.392304845413264,10 9.526279441628825,10.5 9.526279441628825,9.5" stroke="none" fill="darkred" />
  <polygon points="10.392304845413264,10 10.392304845413264,11 9.526279441628825,11.5 9.526279441628825,10.5" stroke="none" fill="darkred" />
  <polygon points="11.258330249197703,9.5 11.258330249197703,10.5 10.392304845413264,11 10.392304845413264,10" stroke="none" fill="darkred" />
  <polygon points="11.258330249197703,8.5 11.258330249197703,9.5 10.392304845413264,10 10.392304845413264,9" stroke="none" fill="darkred" />
  <polygon points="7.794228634059947,13.5 7.794228634059947,14.5 6.928203230275509,15 6.928203230275509,14" stroke="none" fill="darkred" />
  <polygon points="8.660254037844386,13 8.660254037844386,14 7.794228634059947,14.5 7.794228634059947,13.5" stroke="none" fill="darkred" />
  <polygon points="8.660254037844386,14 8.660254037844386,15 7.794228634059947,15.5 7.794228634059947,14.5" stroke="none" fill="darkred" />
  <polygon points="7.794228634059947,14.5 7.794228634059947,15.5 6.928203230275509,16 6.928203230275509,15" stroke="none" fill="darkred" />
  <polygon points="2.598076211353316,8.5 3.4641016151377544,9 3.4641016151377544,10 2.598076211353316,9.5" stroke="none" fill="indianred" />
  <polygon points="3.4641016151377544,9 4.330127018922193,9.5 4.330127018922193,10.5 3.4641016151377544,10" stroke="none" fill="indianred" />
  <polygon points="2.598076211353316,9.5 3.4641016151377544,10 3.4641016151377544,11 2.598076211353316,10.5" stroke="none" fill="indianred" />
  <polygon points="3.4641016151377544,10 4.330127018922193,10.5 4.330127018922193,11.5 3.4641016151377544,11" stroke="none" fill="indianred" />
  <polygon points="5.196152422706632,13 6.06217782649107,13.5 6.06217782649107,14.5 5.196152422706632,14" stroke="none" fill="indianred" />
  <polygon points="6.06217782649107,13.5 6.928203230275509,14 6.928203230275509,15 6.06217782649107,14.5" stroke="none" fill="indianred" />
  <polygon points="5.196152422706632,14 6.06217782649107,14.5 6.06217782649107,15.5 5.196152422706632,15" stroke="none" fill="indianred" />
  <polygon points="6.06217782649107,14.5 6.928203230275509,15 6.928203230275509,16 6.06217782649107,15.5" stroke="none" fill="indianred" />
  <polygon points="6.928203230275509,7 7.794228634059947,7.5 6.928203230275509,8 6.06217782649107,7.5" stroke="none" fill="lightcoral" />
  <polygon points="6.06217782649107,6.5 6.928203230275509,7 6.06217782649107,7.5 5.196152422706632,7" stroke="none" fill="lightcoral" />
  <polygon points="6.928203230275509,6 7.794228634059947,6.5 6.928203230275509,7 6.06217782649107,6.5" stroke="none" fill="lightcoral" />
  <polygon points="7.794228634059947,6.5 8.660254037844386,7 7.794228634059947,7.5 6.928203230275509,7" stroke="none" fill="lightcoral" />
  <polygon points="11.258330249197703,13.5 12.124355652982143,14 11.258330249197703,14.5 10.392304845413264,14" stroke="none" fill="lightcoral" />
  <polygon points="11.258330249197703,14.5 12.124355652982143,15 11.258330249197703,15.5 10.392304845413264,15" stroke="none" fill="lightcoral" />
  <polygon points="10.392304845413264,14 11.258330249197703,14.5 10.392304845413264,15 9.526279441628825,14.5" stroke="none" fill="lightcoral" />
  <polygon points="12.12435565298214,14 12.99038105676658,14.5 12.12435565298214,15 11.258330249197702,14.5" stroke="none" fill="lightcoral" />
  <polygon points="2.598076211353316,13.5 3.4641016151377544,14 2.598076211353316,14.5 1.7320508075688772,14" stroke="none" fill="lightcoral" />
  <polygon points="2.598076211353316,14.5 3.4641016151377544,15 2.598076211353316,15.5 1.7320508075688772,15" stroke="none" fill="lightcoral" />
  <polygon points="3.4641016151377544,14 4.330127018922193,14.5 3.4641016151377544,15 2.598076211353316,14.5" stroke="none" fill="lightcoral" />
  <polygon points="1.7320508075688772,14 2.598076211353316,14.5 1.7320508075688772,15 0.8660254037844386,14.5" stroke="none" fill="lightcoral" />
  <polygon points="6.928203230275509,5 7.794228634059947,5.5 7.794228634059947,6.5 6.928203230275509,6" stroke="none" fill="indianred" />
  <polygon points="6.928203230275509,4 7.794228634059947,4.5 7.794228634059947,5.5 6.928203230275509,5" stroke="none" fill="indianred" />
  <polygon points="7.794228634059947,4.5 8.660254037844386,5 8.660254037844386,6 7.794228634059947,5.5" stroke="none" fill="indianred" />
  <polygon points="7.794228634059947,5.5 8.660254037844386,6 8.660254037844386,7 7.794228634059947,6.5" stroke="none" fill="indianred" />
  <polygon points="11.258330249197702,12.5 12.12435565298214,13 12.12435565298214,14 11.258330249197702,13.5" stroke="none" fill="indianred" />
  <polygon points="11.258330249197702,11.5 12.12435565298214,12 12.12435565298214,13 11.258330249197702,12.5" stroke="none" fill="indianred" />
  <polygon points="12.12435565298214,12 12.99038105676658,12.5 12.99038105676658,13.5 12.12435565298214,13" stroke="none" fill="indianred" />
  <polygon points="12.12435565298214,13 12.99038105676658,13.5 12.99038105676658,14.5 12.12435565298214,14" stroke="none" fill="indianred" />
  <polygon points="2.598076211353316,12.5 3.4641016151377544,13 3.4641016151377544,14 2.598076211353316,13.5" stroke="none" fill="indianred" />
  <polygon points="3.4641016151377544,13 4.330127018922193,13.5 4.330127018922193,14.5 3.4641016151377544,14" stroke="none" fill="indianred" />
  <polygon points="3.4641016151377544,12 4.330127018922193,12.5 4.330127018922193,13.5 3.4641016151377544,13" stroke="none" fill="indianred" />
  <polygon points="2.598076211353316,11.5 3.4641016151377544,12 3.4641016151377544,13 2.598076211353316,12.5" stroke="none" fill="indianred" />
  <polygon points="6.928203230275509,4 6.928203230275509,5 6.06217782649107,5.5 6.06217782649107,4.5" stroke="none" fill="darkred" />
  <polygon points="6.06217782649107,4.5 6.06217782649107,5.5 5.196152422706632,6 5.196152422706632,5" stroke="none" fill="darkred" />
  <polygon points="6.06217782649107,5.5 6.06217782649107,6.5 5.196152422706632,7 5.196152422706632,6" stroke="none" fill="darkred" />
  <polygon points="6.928203230275509,5 6.928203230275509,6 6.06217782649107,6.5 6.06217782649107,5.5" stroke="none" fill="darkred" />
  <polygon points="11.258330249197703,12.5 11.258330249197703,13.5 10.392304845413264,14 10.392304845413264,13" stroke="none" fill="darkred" />
  <polygon points="10.392304845413264,13 10.392304845413264,14 9.526279441628825,14.5 9.526279441628825,13.5" stroke="none" fill="darkred" />
  <polygon points="10.392304845413264,12 10.392304845413264,13 9.526279441628825,13.5 9.526279441628825,12.5" stroke="none" fill="darkred" />
  <polygon points="11.258330249197703,11.5 11.258330249197703,12.5 10.392304845413264,13 10.392304845413264,12" stroke="none" fill="darkred" />
  <polygon points="1.7320508075688772,13 1.7320508075688772,14 0.8660254037844386,14.5 0.8660254037844386,13.5" stroke="none" fill="darkred" />
  <polygon points="2.598076211353316,12.5 2.598076211353316,13.5 1.7320508075688772,14 1.7320508075688772,13" stroke="none" fill="darkred" />
  <polygon points="1.7320508075688772,12 1.7320508075688772,13 0.8660254037844386,13.5 0.8660254037844386,12.5" stroke="none" fill="darkred" />
  <polygon points="2.598076211353316,11.5 2.598076211353316,12.5 1.7320508075688772,13 1.7320508075688772,12" stroke="none" fill="darkred" />
</svg>
  