<?xml version="1.0" encoding="UTF-8" standalone="no"?>
<svg
   xmlns:dc="http://purl.org/dc/elements/1.1/"
   xmlns:cc="http://creativecommons.org/ns#"
   xmlns:rdf="http://www.w3.org/1999/02/22-rdf-syntax-ns#"
   xmlns:svg="http://www.w3.org/2000/svg"
   xmlns="http://www.w3.org/2000/svg"
   version="1.1"
   width="240"
   viewBox="0 0 30 36"
   height="288"
   enable-background="new 0 0 64 64"
   id="Layer">
  <metadata
     id="metadata13">
    <rdf:RDF>
      <cc:Work
         rdf:about="">
        <dc:format>image/svg+xml</dc:format>
        <dc:type
           rdf:resource="http://purl.org/dc/dcmitype/StillImage" />
        <dc:title></dc:title>
      </cc:Work>
    </rdf:RDF>
  </metadata>
  <defs
     id="defs11" />
  <path
     style="stroke-width:3.25;stroke-miterlimit:4;stroke-dasharray:none"
     id="path2"
     d="m 28,36 c 1.104,0 2,-0.896 2,-2 V 10 C 30,9.47 29.789,8.961 29.414,8.586 l -8,-8 C 21.039,0.211 20.53,0 20,0 H 2 C 0.896,0 0,0.896 0,2 v 32 c 0,1.104 0.896,2 2,2 z M 24.171,9 H 20 V 4.829 Z M 4,4 h 12 v 7 c 0,1.104 0.896,2 2,2 h 8 V 32 H 4 Z" />
  <path
     d="m 15,27.641506 -5.033641,-3.25 m 5.033641,3.25 5.033641,-3.25 M 15,16.95101 v 10.690496"
     style="fill:#000000;stroke:#000000;stroke-width:3.25;stroke-linecap:round;stroke-linejoin:round;stroke-miterlimit:4;stroke-dasharray:none;stroke-opacity:1"
     id="path833-5" />
</svg>
