<?xml version="1.0" encoding="UTF-8" standalone="no"?>
<svg
   xmlns:dc="http://purl.org/dc/elements/1.1/"
   xmlns:cc="http://creativecommons.org/ns#"
   xmlns:rdf="http://www.w3.org/1999/02/22-rdf-syntax-ns#"
   xmlns:svg="http://www.w3.org/2000/svg"
   xmlns="http://www.w3.org/2000/svg"
   id="svg4"
   version="1.1"
   width="639.59314pt"
   viewBox="-21 -21 640.21837 635.85004"
   height="635.85004pt">
  <metadata
     id="metadata10">
    <rdf:RDF>
      <cc:Work
         rdf:about="">
        <dc:format>image/svg+xml</dc:format>
        <dc:type
           rdf:resource="http://purl.org/dc/dcmitype/StillImage" />
        <dc:title></dc:title>
      </cc:Work>
    </rdf:RDF>
  </metadata>
  <defs
     id="defs8" />
  <path
     id="path2"
     d="m 243.63859,-16.405955 c 84.14811,-14.809817 169.02669,4.021664 239.01372,53.027116 69.99088,49.004763 116.71925,122.328819 131.5784,206.464269 14.75536,83.54686 -3.48092,167.84218 -51.349,237.35101 -47.87306,69.52557 -120.12783,116.60831 -203.43726,132.57523 -1.16293,0.2209 -2.32922,0.44249 -3.49415,0.65186 l -0.36534,0.0644 c -26.58981,4.6885 -53.73151,-2.43334 -74.52273,-19.56769 -21.1401,-17.42583 -33.4858,-43.24126 -33.87003,-70.83991 -0.0894,-6.58054 -0.80441,-13.22463 -2.12184,-19.75126 -5.37842,-26.67839 -20.75015,-50.05552 -43.28121,-65.83195 -22.52722,-15.77711 -49.75951,-22.22403 -76.66535,-18.15808 -6.58362,0.99428 -13.0723,2.59341 -19.29041,4.76078 -26.054135,9.0762 -54.54544,6.31369 -78.15071,-7.59152 -23.3154099,-13.7461 -39.32809,-36.96215 -43.93851,-63.71646 -0.20024,-1.15861 -0.39117,-2.3313 -0.57998,-3.49192 C -30.32534,265.79365 -10.79435,181.79458 38.16476,113.02947 87.093315,44.293557 160.02169,-1.6620389 243.54184,-16.388896 Z"
     style="stroke-width:1" />
  <path
     id="path899"
     d="M 532.79158,281.65801 A 79.588722,79.588722 0 0 1 430.7817,329.226 79.588722,79.588722 0 0 1 383.21371,227.21611 79.588722,79.588722 0 0 1 485.2236,179.64813 79.588722,79.588722 0 0 1 532.79158,281.65801 Z"
     style="opacity:1;fill:#ffffff;fill-opacity:1;stroke:none;stroke-width:4.3687129;stroke-miterlimit:4;stroke-dasharray:none;stroke-opacity:1" />
  <path
     id="path897"
     d="M 215.00468,281.65826 A 79.588722,79.588722 0 0 1 112.9948,329.22625 79.588722,79.588722 0 0 1 65.426808,227.21637 79.588722,79.588722 0 0 1 167.43669,179.64839 79.588722,79.588722 0 0 1 215.00468,281.65826 Z"
     style="opacity:1;fill:#ffffff;fill-opacity:1;stroke:none;stroke-width:4.3687129;stroke-miterlimit:4;stroke-dasharray:none;stroke-opacity:1" />
  <path
     id="path829-0-6"
     d="M 373.66048,123.6484 A 79.588715,79.588715 0 0 1 271.65061,171.21638 79.588715,79.588715 0 0 1 224.08263,69.206513 79.588715,79.588715 0 0 1 326.09249,21.638527 79.588715,79.588715 0 0 1 373.66048,123.6484 Z"
     style="opacity:1;fill:#ffffff;fill-opacity:1;stroke:none;stroke-width:4.3687129;stroke-miterlimit:4;stroke-dasharray:none;stroke-opacity:1" />
</svg>
