<?xml version="1.0" encoding="UTF-8" standalone="no"?>
<svg
   xmlns:dc="http://purl.org/dc/elements/1.1/"
   xmlns:cc="http://creativecommons.org/ns#"
   xmlns:rdf="http://www.w3.org/1999/02/22-rdf-syntax-ns#"
   xmlns:svg="http://www.w3.org/2000/svg"
   xmlns="http://www.w3.org/2000/svg"
   version="1.1"
   width="336"
   viewBox="0 0 42 47.75"
   height="382"
   enable-background="new 0 0 64 64"
   id="Layer">
  <metadata
     id="metadata13">
    <rdf:RDF>
      <cc:Work
         rdf:about="">
        <dc:format>image/svg+xml</dc:format>
        <dc:type
           rdf:resource="http://purl.org/dc/dcmitype/StillImage" />
        <dc:title></dc:title>
      </cc:Work>
    </rdf:RDF>
  </metadata>
  <defs
     id="defs11" />
  <path
     id="path2"
     d="m 40,47.75 c 1.104,0 2,-0.896 2,-2 v -24 c 0,-0.53 -0.211,-1.039 -0.586,-1.414 l -8,-8 C 33.039,11.961 32.53,11.75 32,11.75 H 14 c -1.104,0 -2,0.896 -2,2 v 32 c 0,1.104 0.896,2 2,2 z m -3.829,-27 H 32 V 16.579 Z M 16,15.75 h 12 v 7 c 0,1.104 0.896,2 2,2 h 8 v 19 H 16 Z" />
  <path
     d="m 38,6 c 0,1.104 0.896,2 2,2 1.104,0 2,-0.896 2,-2 V 2 C 42,0.896 41.104,0 40,0 38.896,0 38,0.896 38,2 H 16 C 16,0.896 15.104,0 14,0 12.896,0 12,0.896 12,2 v 4 c 0,1.104 0.896,2 2,2 1.104,0 2,-0.896 2,-2"
     style="stroke-width:1"
     id="path4" />
  <path
     id="path6"
     d="m 0,45.75 c 0,1.104 0.896,2 2,2 h 4 c 1.104,0 2,-0.896 2,-2 0,-1.104 -0.896,-2 -2,-2 v -28 c 1.104,0 2,-0.896 2,-2 0,-1.104 -0.896,-2 -2,-2 H 2 c -1.104,0 -2,0.896 -2,2 0,1.104 0.896,2 2,2 v 28 c -1.104,0 -2,0.896 -2,2 z" />
</svg>
