<?xml version="1.0" encoding="UTF-8" standalone="no"?>
<svg
   xmlns:dc="http://purl.org/dc/elements/1.1/"
   xmlns:cc="http://creativecommons.org/ns#"
   xmlns:rdf="http://www.w3.org/1999/02/22-rdf-syntax-ns#"
   xmlns:svg="http://www.w3.org/2000/svg"
   xmlns="http://www.w3.org/2000/svg"
   xmlns:xlink="http://www.w3.org/1999/xlink"
   id="svg914"
   version="1.1"
   viewBox="0 0 192.01154 192.01204"
   height="192.01204mm"
   width="192.01154mm">
  <defs
     id="defs908">
    <pattern
       patternTransform="matrix(0.26458333,0,0,0.26458333,90.264317,91.568421)"
       id="pattern1542"
       xlink:href="#pattern818" />
    <pattern
       id="pattern818"
       patternTransform="matrix(0.26458333,0,0,0.26458333,90.264317,91.568421)"
       height="430.34891"
       width="111.38787"
       patternUnits="userSpaceOnUse">
      <g
         transform="matrix(3.7795276,0,0,3.7795276,-341.15647,-346.08537)"
         aria-label="i"
         style="font-style:normal;font-variant:normal;font-weight:normal;font-stretch:normal;font-size:158.41828918px;line-height:1.25;font-family:Baloo;-inkscape-font-specification:Baloo;font-variant-ligatures:normal;font-variant-caps:normal;font-variant-numeric:normal;font-feature-settings:normal;text-align:start;letter-spacing:0px;word-spacing:0px;writing-mode:lr-tb;text-anchor:start;fill:#000000;fill-opacity:1;stroke:none;stroke-width:4.95057154"
         id="text938">
        <path
           d="m 90.264317,105.80131 q 0,-6.033504 4.022339,-10.133196 4.099692,-4.099693 10.752024,-4.099693 6.65233,0 10.67467,4.099693 4.02234,4.099692 4.02234,10.133196 0,6.03351 -4.02234,10.21056 -4.02234,4.09969 -10.67467,4.09969 -6.652332,0 -10.752024,-4.09969 -4.022339,-4.17705 -4.022339,-10.21056 z m 28.233723,98.23791 q -1.77911,0.30941 -5.18262,0.85088 -3.40352,0.54147 -6.88439,0.54147 -3.48087,0 -6.26557,-0.46412 -2.784697,-0.46412 -4.718514,-1.85646 -1.856464,-1.4697 -2.862049,-3.86764 -1.005585,-2.47528 -1.005585,-6.42027 v -64.51214 q 1.779112,-0.30941 5.105277,-0.85087 3.403521,-0.54147 6.884391,-0.54147 3.48087,0 6.26556,0.46411 2.7847,0.46412 4.64117,1.93382 1.93381,1.39235 2.9394,3.86763 1.08293,2.39794 1.08293,6.34292 z"
           style="stroke-width:4.95057154"
           id="path815" />
      </g>
    </pattern>
  </defs>
  <metadata
     id="metadata911">
    <rdf:RDF>
      <cc:Work
         rdf:about="">
        <dc:format>image/svg+xml</dc:format>
        <dc:type
           rdf:resource="http://purl.org/dc/dcmitype/StillImage" />
        <dc:title></dc:title>
      </cc:Work>
    </rdf:RDF>
  </metadata>
  <g
     transform="translate(-8.9942336,-52.493976)"
     id="layer1">
    <path
       id="path916"
       d="M 104.99974,52.493976 A 96.00595,96.00595 0 0 0 8.9942336,148.5 96.00595,96.00595 0 0 0 104.99974,244.50602 96.00595,96.00595 0 0 0 201.00577,148.5 96.00595,96.00595 0 0 0 104.99974,52.493976 Z m 0,16.253272 a 79.752975,79.752975 0 0 1 7.96231,0.398425 79.752975,79.752975 0 0 1 7.8822,1.191141 79.752975,79.752975 0 0 1 7.72408,1.97249 79.752975,79.752975 0 0 1 7.48895,2.733167 79.752975,79.752975 0 0 1 7.17837,3.467489 79.752975,79.752975 0 0 1 6.79597,4.167187 79.752975,79.752975 0 0 1 6.34638,4.824511 79.752975,79.752975 0 0 1 5.83324,5.433777 79.752975,79.752975 0 0 1 5.26117,5.989298 79.752975,79.752975 0 0 1 4.63745,6.484357 79.752975,79.752975 0 0 1 3.96668,6.91534 79.752975,79.752975 0 0 1 3.25613,7.27656 79.752975,79.752975 0 0 1 2.51406,7.56543 79.752975,79.752975 0 0 1 1.74563,7.77833 79.752975,79.752975 0 0 1 0.96067,7.91373 79.752975,79.752975 0 0 1 0.19998,5.64152 79.752975,79.752975 0 0 1 -0.39842,7.96178 79.752975,79.752975 0 0 1 -1.19166,7.88273 79.752975,79.752975 0 0 1 -1.97197,7.72407 79.752975,79.752975 0 0 1 -2.73369,7.48895 79.752975,79.752975 0 0 1 -3.46749,7.17786 79.752975,79.752975 0 0 1 -4.16667,6.79648 79.752975,79.752975 0 0 1 -4.82451,6.34639 79.752975,79.752975 0 0 1 -5.43429,5.83323 79.752975,79.752975 0 0 1 -5.9893,5.26118 79.752975,79.752975 0 0 1 -6.48436,4.63692 79.752975,79.752975 0 0 1 -6.91482,3.96669 79.752975,79.752975 0 0 1 -7.27656,3.25665 79.752975,79.752975 0 0 1 -7.56543,2.51354 79.752975,79.752975 0 0 1 -7.77834,1.74614 79.752975,79.752975 0 0 1 -7.91424,0.96067 79.752975,79.752975 0 0 1 -5.64152,0.19947 79.752975,79.752975 0 0 1 -7.961787,-0.39842 79.752975,79.752975 0 0 1 -7.882723,-1.19114 79.752975,79.752975 0 0 1 -7.724076,-1.97249 79.752975,79.752975 0 0 1 -7.488431,-2.73317 79.752975,79.752975 0 0 1 -7.178373,-3.46749 79.752975,79.752975 0 0 1 -6.796484,-4.16719 79.752975,79.752975 0 0 1 -6.346384,-4.82451 79.752975,79.752975 0 0 1 -5.832718,-5.43378 79.752975,79.752975 0 0 1 -5.261695,-5.98929 79.752975,79.752975 0 0 1 -4.636926,-6.48436 79.752975,79.752975 0 0 1 -3.966683,-6.91534 79.752975,79.752975 0 0 1 -3.256648,-7.27656 79.752975,79.752975 0 0 1 -2.513541,-7.56491 79.752975,79.752975 0 0 1 -1.74563,-7.77886 79.752975,79.752975 0 0 1 -0.960665,-7.91373 79.752975,79.752975 0 0 1 -0.199988,-5.64151 79.752975,79.752975 0 0 1 0.398425,-7.96179 79.752975,79.752975 0 0 1 1.191143,-7.88272 79.752975,79.752975 0 0 1 1.97249,-7.72408 79.752975,79.752975 0 0 1 2.733683,-7.48843 79.752975,79.752975 0 0 1 3.467488,-7.17837 79.752975,79.752975 0 0 1 4.166669,-6.79649 79.752975,79.752975 0 0 1 4.824513,-6.346377 79.752975,79.752975 0 0 1 5.434293,-5.833236 79.752975,79.752975 0 0 1 5.988783,-5.261176 79.752975,79.752975 0 0 1 6.484874,-4.636927 79.752975,79.752975 0 0 1 6.914824,-3.966683 79.752975,79.752975 0 0 1 7.276558,-3.256648 79.752975,79.752975 0 0 1 7.565429,-2.513541 79.752975,79.752975 0 0 1 7.778338,-1.746147 79.752975,79.752975 0 0 1 7.913727,-0.960665 79.752975,79.752975 0 0 1 5.641515,-0.199472 z"
       style="opacity:1;fill:#000000;fill-opacity:1;stroke:none;stroke-width:6.8791666;stroke-linecap:round;stroke-linejoin:round;stroke-miterlimit:4;stroke-dasharray:none;stroke-opacity:1" />
    <path
       d="M 90.263672,91.568359 V 205.43164 H 119.73633 V 91.568359 Z"
       id="rect822"
       style="fill:url(#pattern1542);stroke:none" />
  </g>
</svg>
