<?xml version="1.0" encoding="UTF-8" standalone="no"?>
<svg
   xmlns:dc="http://purl.org/dc/elements/1.1/"
   xmlns:cc="http://creativecommons.org/ns#"
   xmlns:rdf="http://www.w3.org/1999/02/22-rdf-syntax-ns#"
   xmlns:svg="http://www.w3.org/2000/svg"
   xmlns="http://www.w3.org/2000/svg"
   xmlns:xlink="http://www.w3.org/1999/xlink"
   id="svg1846"
   version="1.1"
   viewBox="0 0 149.69435 33.32135"
   height="33.32135mm"
   width="149.69435mm">
  <defs
     id="defs1840">
    <linearGradient
       gradientUnits="userSpaceOnUse"
       y2="100.86892"
       x2="59.54081"
       y1="91.227745"
       x1="48.85318"
       id="linearGradient1556-7-4"
       xlink:href="#linearGradient1659"
       gradientTransform="matrix(1.4544474,0,0,1.4544474,-42.299721,-57.200337)" />
    <linearGradient
       id="linearGradient1659">
      <stop
         style="stop-color:#f859f8;stop-opacity:1"
         offset="0"
         id="stop1655" />
      <stop
         style="stop-color:#810db9;stop-opacity:1"
         offset="1"
         id="stop1657" />
    </linearGradient>
  </defs>
  <metadata
     id="metadata1843">
    <rdf:RDF>
      <cc:Work
         rdf:about="">
        <dc:format>image/svg+xml</dc:format>
        <dc:type
           rdf:resource="http://purl.org/dc/dcmitype/StillImage" />
        <dc:title></dc:title>
      </cc:Work>
    </rdf:RDF>
  </metadata>
  <g
     transform="translate(-25.061723,-67.293978)"
     id="layer1">
    <g
       id="text817-1-1-3-4"
       style="font-style:normal;font-variant:normal;font-weight:normal;font-stretch:normal;font-size:23.4963932px;line-height:1.25;font-family:Baloo;-inkscape-font-specification:Baloo;font-variant-ligatures:normal;font-variant-caps:normal;font-variant-numeric:normal;font-feature-settings:normal;text-align:start;letter-spacing:0px;word-spacing:0px;writing-mode:lr-tb;text-anchor:start;fill:#ffffff;fill-opacity:1;stroke:none;stroke-width:0.73426229"
       aria-label="isometricks">
      <path
         id="path847"
         style="fill:#ffffff;stroke-width:0.73426229"
         d="m 50.298614,72.206868 q 0,-0.894882 0.596588,-1.502943 0.608061,-0.608061 1.594726,-0.608061 0.986665,0 1.583253,0.608061 0.596588,0.608061 0.596588,1.502943 0,0.894882 -0.596588,1.514416 -0.596588,0.608061 -1.583253,0.608061 -0.986665,0 -1.594726,-0.608061 -0.596588,-0.619534 -0.596588,-1.514416 z m 4.187589,14.570517 q -0.263875,0.04589 -0.768681,0.126202 -0.504805,0.08031 -1.021083,0.08031 -0.516278,0 -0.929301,-0.06884 -0.413022,-0.06884 -0.699844,-0.275349 -0.275348,-0.217984 -0.424495,-0.573642 -0.149147,-0.367131 -0.149147,-0.952247 v -9.568355 q 0.263876,-0.04589 0.757208,-0.126201 0.504805,-0.08031 1.021083,-0.08031 0.516279,0 0.929301,0.06884 0.413023,0.06884 0.688371,0.286821 0.286821,0.206511 0.435968,0.573642 0.16062,0.355659 0.16062,0.940774 z" />
      <path
         id="path849"
         style="fill:#ffffff;stroke-width:0.73426229"
         d="m 66.63595,83.392895 q 0,1.789765 -1.342324,2.799375 -1.33085,1.009611 -3.946659,1.009611 -0.986665,0 -1.835656,-0.149147 -0.837518,-0.137674 -1.445579,-0.424496 -0.596588,-0.298294 -0.940774,-0.745735 -0.332712,-0.447441 -0.332712,-1.055502 0,-0.562169 0.229457,-0.952246 0.24093,-0.390077 0.573642,-0.64248 0.676898,0.378604 1.560308,0.676898 0.883409,0.286822 2.030694,0.286822 0.722789,0 1.112866,-0.206512 0.390077,-0.217984 0.390077,-0.573642 0,-0.332713 -0.286821,-0.516278 -0.275349,-0.183566 -0.929301,-0.309767 l -0.711317,-0.137674 q -2.042167,-0.40155 -3.040304,-1.250541 -0.998138,-0.860463 -0.998138,-2.455189 0,-0.871937 0.367131,-1.571781 0.378604,-0.711316 1.055502,-1.181703 0.688371,-0.470387 1.640617,-0.722789 0.952247,-0.263876 2.099531,-0.263876 0.871937,0 1.629145,0.126201 0.768681,0.126202 1.33085,0.390077 0.573643,0.252403 0.894882,0.665425 0.332713,0.413023 0.332713,0.975193 0,0.539223 -0.206511,0.9293 -0.195039,0.390077 -0.493333,0.653953 -0.183565,-0.114729 -0.562169,-0.24093 -0.378604,-0.137674 -0.826045,-0.24093 -0.447441,-0.114728 -0.906355,-0.183566 -0.458914,-0.06884 -0.837518,-0.06884 -0.780154,0 -1.204649,0.183566 -0.413023,0.172093 -0.413023,0.550697 0,0.263875 0.229457,0.424495 0.24093,0.16062 0.894882,0.298294 l 0.734263,0.16062 q 2.260151,0.516278 3.200924,1.422633 0.952247,0.906355 0.952247,2.340461 z" />
      <path
         id="path851"
         style="fill:#ffffff;stroke-width:0.73426229"
         d="m 80.529568,81.086853 q 0,1.457051 -0.447441,2.604336 -0.447441,1.135812 -1.262013,1.915966 -0.8031,0.768681 -1.938912,1.17023 -1.124339,0.40155 -2.512553,0.40155 -1.388215,0 -2.512554,-0.424495 -1.124339,-0.424496 -1.938912,-1.204649 -0.814572,-0.791627 -1.262013,-1.915966 -0.447441,-1.135812 -0.447441,-2.546972 0,-1.388215 0.447441,-2.512554 0.447441,-1.124339 1.262013,-1.904493 0.814573,-0.791626 1.938912,-1.216122 1.124339,-0.424495 2.512554,-0.424495 1.388214,0 2.512553,0.435968 1.135812,0.435968 1.938912,1.227595 0.814572,0.780153 1.262013,1.904493 0.447441,1.124339 0.447441,2.489608 z m -8.226032,0 q 0,1.434106 0.550697,2.202787 0.550696,0.757208 1.537361,0.757208 0.986665,0 1.514416,-0.768681 0.527751,-0.780154 0.527751,-2.191314 0,-1.411161 -0.539224,-2.168369 -0.539224,-0.76868 -1.525888,-0.76868 -0.986665,0 -1.525889,0.76868 -0.539224,0.757208 -0.539224,2.168369 z" />
      <path
         id="path853"
         style="fill:#ffffff;stroke-width:0.73426229"
         d="m 87.952501,75.029189 q 0.963719,0 1.881547,0.275348 0.929301,0.263876 1.617672,0.8031 0.699843,-0.470387 1.583253,-0.768681 0.883409,-0.309767 2.122477,-0.309767 0.894882,0 1.755345,0.24093 0.860464,0.229457 1.525889,0.734262 0.665425,0.504805 1.066975,1.342323 0.40155,0.826045 0.40155,2.030694 v 7.399987 q -0.229457,0.06884 -0.734263,0.137675 -0.504805,0.06884 -1.055502,0.06884 -0.516278,0 -0.9293,-0.06884 -0.40155,-0.06884 -0.688371,-0.275349 -0.275349,-0.217984 -0.435968,-0.573642 -0.149147,-0.367131 -0.149147,-0.952247 v -5.621695 q 0,-0.699844 -0.40155,-1.021084 -0.40155,-0.321239 -1.078448,-0.321239 -0.332712,0 -0.711316,0.160619 -0.367132,0.149147 -0.56217,0.309767 0.02295,0.09178 0.02295,0.183566 0,0.08031 0,0.149147 v 7.824482 q -0.263876,0.06884 -0.768681,0.137675 -0.493333,0.06884 -1.009611,0.06884 -0.516278,0 -0.929301,-0.06884 -0.413022,-0.06884 -0.699843,-0.275349 -0.275349,-0.217984 -0.435969,-0.573642 -0.149147,-0.367131 -0.149147,-0.952247 v -5.621695 q 0,-0.699844 -0.435968,-1.021084 -0.435968,-0.321239 -1.044029,-0.321239 -0.424495,0 -0.734262,0.137674 -0.298294,0.126201 -0.504806,0.24093 v 8.248977 q -0.229457,0.06884 -0.745735,0.137675 -0.504805,0.06884 -1.044029,0.06884 -0.516278,0 -0.929301,-0.06884 -0.413022,-0.06884 -0.699843,-0.275349 -0.275349,-0.217984 -0.435969,-0.573642 -0.149147,-0.367131 -0.149147,-0.952247 v -7.101693 q 0,-0.631006 0.275349,-1.00961 0.275348,-0.378604 0.745735,-0.699844 0.803099,-0.56217 1.984803,-0.917828 1.181703,-0.355658 2.478135,-0.355658 z" />
      <path
         id="path855"
         style="fill:#ffffff;stroke-width:0.73426229"
         d="m 108.38565,87.178935 q -1.38822,0 -2.58139,-0.390077 -1.18171,-0.390077 -2.06512,-1.158757 -0.87193,-0.780154 -1.38821,-1.950385 -0.50481,-1.181703 -0.50481,-2.753483 0,-1.548835 0.50481,-2.661701 0.51628,-1.124339 1.33085,-1.835656 0.82604,-0.722789 1.88155,-1.055502 1.0555,-0.344185 2.15689,-0.344185 1.25054,0 2.27162,0.378604 1.02109,0.367131 1.75535,1.032556 0.74574,0.653953 1.15876,1.57178 0.41302,0.917828 0.41302,1.996276 0,0.803099 -0.44744,1.227595 -0.44744,0.413022 -1.25054,0.539224 l -5.79379,0.871936 q 0.26388,0.780154 1.0555,1.170231 0.79163,0.378604 1.83566,0.378604 0.96372,0 1.81271,-0.24093 0.86046,-0.252403 1.39969,-0.585116 0.3786,0.229457 0.631,0.653953 0.26388,0.424495 0.26388,0.894882 0,1.055502 -0.98667,1.57178 -0.7572,0.40155 -1.69798,0.539224 -0.9293,0.149147 -1.75534,0.149147 z m -0.66543,-9.235643 q -0.56217,0 -0.97519,0.195039 -0.40155,0.183565 -0.66543,0.481859 -0.2524,0.286822 -0.39007,0.653953 -0.1262,0.355658 -0.14915,0.734262 l 4.0155,-0.653952 q -0.0688,-0.470387 -0.51628,-0.940774 -0.44744,-0.470387 -1.31938,-0.470387 z" />
      <path
         id="path857"
         style="fill:#ffffff;stroke-width:0.73426229"
         d="m 119.23896,82.876617 q 0,0.608061 0.3786,0.871936 0.39008,0.252403 1.10139,0.252403 0.35566,0 0.72279,-0.05736 0.37861,-0.05736 0.66543,-0.149147 0.20651,0.263875 0.35566,0.585115 0.16062,0.309767 0.16062,0.757208 0,0.894882 -0.6769,1.457052 -0.66543,0.562169 -2.36341,0.562169 -2.06511,0 -3.17798,-0.940773 -1.11286,-0.940774 -1.11286,-3.051778 V 73.10175 q 0.26387,-0.06884 0.73426,-0.149147 0.48186,-0.08031 1.02108,-0.08031 1.03256,0 1.6062,0.367131 0.58512,0.355659 0.58512,1.525889 v 1.502943 h 3.07472 q 0.13767,0.263876 0.26388,0.653953 0.13767,0.390077 0.13767,0.860463 0,0.826045 -0.36713,1.193177 -0.36713,0.355658 -0.97519,0.355658 h -2.13395 z" />
      <path
         id="path859"
         style="fill:#ffffff;stroke-width:0.73426229"
         d="m 128.64669,86.777385 q -0.22945,0.06884 -0.74573,0.137675 -0.50481,0.06884 -1.04403,0.06884 -0.51628,0 -0.9293,-0.06884 -0.41302,-0.06884 -0.69984,-0.275349 -0.27535,-0.217984 -0.43597,-0.573642 -0.14915,-0.367131 -0.14915,-0.952247 v -7.055801 q 0,-0.539224 0.19504,-0.929301 0.20651,-0.390077 0.58511,-0.688371 0.37861,-0.309767 0.9293,-0.550697 0.5507,-0.252402 1.18171,-0.435968 0.64248,-0.195038 1.31938,-0.298294 0.67689,-0.103255 1.36526,-0.103255 1.12434,0 1.7783,0.435968 0.66542,0.435968 0.66542,1.422633 0,0.332713 -0.10325,0.653952 -0.0918,0.309767 -0.22946,0.56217 -0.49333,0 -1.00961,0.04589 -0.51628,0.04589 -1.00961,0.149147 -0.49334,0.09178 -0.9293,0.195039 -0.43597,0.103255 -0.73427,0.252402 z" />
      <path
         id="path861"
         style="fill:#ffffff;stroke-width:0.73426229"
         d="m 134.18808,72.206868 q 0,-0.894882 0.59659,-1.502943 0.60806,-0.608061 1.59472,-0.608061 0.98667,0 1.58326,0.608061 0.59658,0.608061 0.59658,1.502943 0,0.894882 -0.59658,1.514416 -0.59659,0.608061 -1.58326,0.608061 -0.98666,0 -1.59472,-0.608061 -0.59659,-0.619534 -0.59659,-1.514416 z m 4.18759,14.570517 q -0.26388,0.04589 -0.76868,0.126202 -0.50481,0.08031 -1.02109,0.08031 -0.51627,0 -0.9293,-0.06884 -0.41302,-0.06884 -0.69984,-0.275349 -0.27535,-0.217984 -0.4245,-0.573642 -0.14914,-0.367131 -0.14914,-0.952247 v -9.568355 q 0.26387,-0.04589 0.75721,-0.126201 0.5048,-0.08031 1.02108,-0.08031 0.51628,0 0.9293,0.06884 0.41302,0.06884 0.68837,0.286821 0.28682,0.206511 0.43597,0.573642 0.16062,0.355659 0.16062,0.940774 z" />
      <path
         id="path863"
         style="fill:#ffffff;stroke-width:0.73426229"
         d="m 147.33596,78.172749 q -0.58511,0 -1.12434,0.195039 -0.52775,0.183565 -0.91782,0.550696 -0.37861,0.367132 -0.61954,0.906355 -0.22946,0.539224 -0.22946,1.262014 0,1.457051 0.82605,2.191314 0.83752,0.722789 2.04217,0.722789 0.69984,0 1.21612,-0.16062 0.51628,-0.16062 0.91783,-0.355658 0.47038,0.332713 0.69984,0.722789 0.24093,0.378604 0.24093,0.929301 0,0.963719 -0.91783,1.49147 -0.91783,0.527751 -2.5355,0.527751 -1.47999,0 -2.68464,-0.435968 -1.19318,-0.435968 -2.05364,-1.216122 -0.86047,-0.791626 -1.33085,-1.89302 -0.47039,-1.112866 -0.47039,-2.455189 0,-1.548835 0.5048,-2.707592 0.51628,-1.158758 1.37675,-1.915966 0.87193,-0.757208 2.00775,-1.124339 1.14728,-0.378604 2.40929,-0.378604 1.68651,0 2.60434,0.608061 0.9293,0.608061 0.9293,1.57178 0,0.447441 -0.21798,0.837518 -0.20651,0.390077 -0.49334,0.665425 -0.40155,-0.183565 -0.96372,-0.355658 -0.56216,-0.183566 -1.21612,-0.183566 z" />
      <path
         id="path865"
         style="fill:#ffffff;stroke-width:0.73426229"
         d="m 163.52415,84.735218 q -0.11473,1.101394 -0.64248,1.686509 -0.52775,0.585115 -1.53736,0.585115 -0.75721,0 -1.34232,-0.355658 -0.58512,-0.367131 -1.26202,-1.239068 l -2.32899,-2.914103 v 4.279372 q -0.26387,0.04589 -0.76868,0.126202 -0.5048,0.08031 -1.02108,0.08031 -0.51628,0 -0.9293,-0.06884 -0.41302,-0.06884 -0.69984,-0.275349 -0.27535,-0.217984 -0.4245,-0.573642 -0.14915,-0.367131 -0.14915,-0.952247 V 71.507024 q 0.26388,-0.06884 0.75721,-0.149147 0.50481,-0.09178 1.02108,-0.09178 0.51628,0 0.92931,0.08031 0.41302,0.06884 0.68837,0.275348 0.28682,0.206511 0.43596,0.573642 0.16062,0.367131 0.16062,0.952247 v 6.206811 l 4.03845,-4.141699 q 1.21612,0 1.96185,0.550697 0.74574,0.539224 0.74574,1.353796 0,0.355658 -0.1262,0.653953 -0.11473,0.286821 -0.36713,0.596588 -0.24093,0.298294 -0.63101,0.642479 -0.39008,0.344186 -0.90635,0.791627 l -1.3538,1.17023 z" />
      <path
         id="path867"
         style="fill:#ffffff;stroke-width:0.73426229"
         d="m 174.75607,83.392895 q 0,1.789765 -1.34232,2.799375 -1.33085,1.009611 -3.94666,1.009611 -0.98666,0 -1.83565,-0.149147 -0.83752,-0.137674 -1.44558,-0.424496 -0.59659,-0.298294 -0.94078,-0.745735 -0.33271,-0.447441 -0.33271,-1.055502 0,-0.562169 0.22946,-0.952246 0.24093,-0.390077 0.57364,-0.64248 0.6769,0.378604 1.56031,0.676898 0.88341,0.286822 2.03069,0.286822 0.72279,0 1.11287,-0.206512 0.39007,-0.217984 0.39007,-0.573642 0,-0.332713 -0.28682,-0.516278 -0.27535,-0.183566 -0.9293,-0.309767 l -0.71131,-0.137674 q -2.04217,-0.40155 -3.04031,-1.250541 -0.99814,-0.860463 -0.99814,-2.455189 0,-0.871937 0.36713,-1.571781 0.37861,-0.711316 1.05551,-1.181703 0.68837,-0.470387 1.64061,-0.722789 0.95225,-0.263876 2.09953,-0.263876 0.87194,0 1.62915,0.126201 0.76868,0.126202 1.33085,0.390077 0.57364,0.252403 0.89488,0.665425 0.33271,0.413023 0.33271,0.975193 0,0.539223 -0.20651,0.9293 -0.19504,0.390077 -0.49333,0.653953 -0.18356,-0.114729 -0.56217,-0.24093 -0.3786,-0.137674 -0.82604,-0.24093 -0.44745,-0.114728 -0.90636,-0.183566 -0.45891,-0.06884 -0.83752,-0.06884 -0.78015,0 -1.20465,0.183566 -0.41302,0.172093 -0.41302,0.550697 0,0.263875 0.22946,0.424495 0.24093,0.16062 0.89488,0.298294 l 0.73426,0.16062 q 2.26015,0.516278 3.20093,1.422633 0.95224,0.906355 0.95224,2.340461 z" />
    </g>
    <path
       id="rect824-1-7-9-7-7"
       d="M 25.061723,100.61533 44.299252,89.508202 V 67.293978 L 25.061723,78.401104 Z"
       style="opacity:1;fill:url(#linearGradient1556-7-4);fill-opacity:1;stroke:none;stroke-width:6.14731121;stroke-miterlimit:4;stroke-dasharray:none;stroke-opacity:1" />
  </g>
</svg>
